<svg id="svg" version="1.1" xmlns="http://www.w3.org/2000/svg" xmlns:xlink="http://www.w3.org/1999/xlink" width="400" height="155.01639344262296" viewBox="0, 0, 400,155.01639344262296"><g id="svgg"><path id="path0" d="M0.000 77.500 L 0.000 155.000 200.000 155.000 L 400.000 155.000 400.000 77.500 L 400.000 0.000 200.000 0.000 L 0.000 0.000 0.000 77.500 M185.500 7.375 C 185.802 7.581,186.184 8.004,186.349 8.314 L 186.649 8.878 186.756 8.398 C 187.015 7.232,187.103 7.084,187.579 7.028 C 188.138 6.963,188.116 7.598,187.487 9.709 C 187.029 11.248,187.485 12.491,188.233 11.743 C 188.698 11.278,188.827 11.633,188.473 12.409 C 188.118 13.189,187.289 12.898,187.022 11.899 L 186.900 11.443 186.537 11.832 C 185.140 13.331,183.274 13.158,182.424 11.452 C 181.203 9.003,183.475 5.993,185.500 7.375 M184.050 7.708 C 183.452 8.364,183.295 8.853,183.287 10.079 C 183.268 13.050,185.566 13.668,186.194 10.860 C 186.708 8.564,185.238 6.404,184.050 7.708 M200.704 12.901 C 202.013 13.305,205.221 14.284,207.833 15.077 C 210.446 15.869,212.771 16.585,213.000 16.667 C 213.229 16.749,213.679 16.888,214.000 16.977 C 214.321 17.065,215.596 17.451,216.833 17.834 C 218.071 18.217,219.421 18.630,219.833 18.751 C 220.246 18.872,221.596 19.285,222.833 19.667 C 227.282 21.042,229.429 21.701,230.167 21.917 C 231.069 22.181,234.844 23.333,243.000 25.834 C 246.346 26.861,250.415 28.105,252.042 28.600 C 259.831 30.970,261.080 31.351,263.333 32.052 C 264.662 32.465,266.012 32.876,266.333 32.966 C 266.654 33.056,268.004 33.469,269.333 33.883 C 270.662 34.297,272.012 34.711,272.333 34.803 C 272.654 34.896,273.892 35.272,275.083 35.640 C 276.275 36.007,278.619 36.726,280.292 37.237 C 281.965 37.749,284.702 38.585,286.375 39.096 C 288.048 39.607,290.392 40.326,291.583 40.694 C 292.775 41.062,294.087 41.463,294.500 41.583 C 294.912 41.704,296.262 42.117,297.500 42.500 C 298.737 42.883,300.087 43.296,300.500 43.417 C 301.244 43.635,301.954 43.852,309.500 46.167 C 311.654 46.828,314.354 47.653,315.500 48.001 C 316.646 48.349,318.971 49.061,320.667 49.584 C 322.362 50.107,324.087 50.632,324.500 50.752 C 324.912 50.872,326.225 51.271,327.417 51.639 C 328.608 52.007,330.933 52.719,332.583 53.221 C 334.233 53.723,336.671 54.472,338.000 54.886 C 339.329 55.299,341.579 55.989,343.000 56.418 C 345.877 57.288,346.038 57.373,345.967 57.986 C 345.884 58.695,344.896 58.537,340.083 57.042 C 337.700 56.302,333.612 55.045,331.000 54.250 C 328.387 53.454,324.900 52.389,323.250 51.882 C 321.600 51.375,319.912 50.862,319.500 50.741 C 318.748 50.522,317.085 50.015,311.333 48.250 C 309.637 47.730,306.938 46.904,305.333 46.414 C 303.729 45.925,300.954 45.077,299.167 44.530 C 297.379 43.983,295.054 43.271,294.000 42.949 C 292.946 42.627,290.321 41.823,288.167 41.164 C 286.012 40.505,282.938 39.566,281.333 39.078 C 275.735 37.377,272.399 36.356,270.000 35.611 C 267.268 34.762,262.296 33.245,261.167 32.916 C 260.754 32.795,259.442 32.396,258.250 32.028 C 257.058 31.660,254.733 30.947,253.083 30.444 C 251.433 29.941,248.696 29.103,247.000 28.583 C 245.304 28.063,242.979 27.351,241.833 27.001 C 240.688 26.651,237.987 25.827,235.833 25.168 C 233.679 24.510,230.979 23.686,229.833 23.336 C 228.688 22.986,225.012 21.859,221.667 20.832 C 218.321 19.804,215.246 18.866,214.833 18.747 C 214.421 18.628,213.071 18.215,211.833 17.829 C 210.596 17.443,209.246 17.029,208.833 16.909 C 208.421 16.789,206.096 16.078,203.667 15.329 C 201.237 14.580,198.987 13.892,198.667 13.801 C 197.609 13.498,197.245 12.946,197.762 12.429 C 198.109 12.082,197.987 12.062,200.704 12.901 M176.232 13.930 C 176.556 14.773,176.426 14.900,174.797 15.342 C 173.308 15.746,172.442 15.991,170.083 16.674 C 169.075 16.966,168.025 17.266,167.750 17.340 C 167.475 17.414,166.425 17.710,165.417 17.996 C 162.712 18.766,161.807 19.021,161.250 19.169 C 160.975 19.242,159.925 19.543,158.917 19.837 C 157.908 20.131,156.858 20.432,156.583 20.507 C 156.308 20.581,155.258 20.878,154.250 21.167 C 153.242 21.456,152.192 21.752,151.917 21.825 C 151.016 22.064,147.108 23.171,146.000 23.500 C 144.848 23.842,136.259 26.283,135.417 26.508 C 135.142 26.581,134.092 26.878,133.083 27.167 C 132.075 27.456,131.025 27.752,130.750 27.825 C 130.475 27.899,128.225 28.534,125.750 29.237 C 123.275 29.940,119.412 31.037,117.167 31.675 C 112.505 33.000,101.608 36.089,96.917 37.417 C 95.175 37.909,91.987 38.814,89.833 39.427 C 87.679 40.040,85.692 40.602,85.417 40.675 C 85.142 40.748,84.092 41.044,83.083 41.333 C 82.075 41.622,81.025 41.919,80.750 41.992 C 79.949 42.206,71.356 44.647,70.167 44.999 C 69.571 45.175,66.533 46.040,63.417 46.921 C 60.300 47.801,56.063 48.999,54.000 49.582 C 51.938 50.164,49.950 50.726,49.583 50.830 C 46.944 51.576,46.769 51.584,46.574 50.970 C 46.449 50.578,47.004 49.909,47.555 49.787 C 47.754 49.743,48.367 49.579,48.917 49.422 C 49.467 49.266,50.142 49.078,50.417 49.005 C 50.692 48.932,53.017 48.266,55.583 47.527 C 65.702 44.611,76.156 41.667,76.391 41.667 C 76.528 41.667,78.202 41.221,80.111 40.677 C 82.021 40.132,86.658 38.816,90.417 37.752 C 97.380 35.781,100.026 35.031,109.750 32.275 C 112.775 31.417,116.375 30.399,117.750 30.013 C 119.125 29.627,121.300 28.985,122.583 28.587 C 123.867 28.188,127.504 27.134,130.667 26.244 C 133.829 25.354,137.804 24.232,139.500 23.751 C 141.196 23.270,145.171 22.146,148.333 21.252 C 151.496 20.359,155.471 19.235,157.167 18.754 C 158.862 18.273,161.862 17.423,163.833 16.866 C 172.318 14.465,173.407 14.146,173.574 14.009 C 174.044 13.624,176.091 13.563,176.232 13.930 M195.552 15.785 C 196.303 16.491,197.967 18.089,199.250 19.336 C 200.533 20.583,202.933 22.911,204.583 24.509 C 206.233 26.107,208.746 28.542,210.167 29.919 C 215.605 35.191,217.406 36.933,217.919 37.417 C 218.211 37.692,219.680 39.111,221.183 40.571 C 222.687 42.031,224.854 44.131,226.000 45.239 C 227.146 46.347,229.321 48.453,230.833 49.919 C 232.346 51.385,235.796 54.720,238.500 57.329 C 241.204 59.938,244.692 63.317,246.250 64.837 C 247.808 66.358,251.446 69.882,254.333 72.668 C 257.221 75.454,260.897 79.013,262.503 80.575 C 264.109 82.138,267.316 85.246,269.628 87.481 C 273.914 91.623,274.201 91.988,273.579 92.503 C 273.109 92.894,273.348 93.102,265.000 85.024 C 262.479 82.585,259.142 79.346,257.583 77.826 C 256.025 76.306,252.350 72.746,249.417 69.916 C 244.206 64.888,240.971 61.755,236.250 57.168 C 234.967 55.921,231.592 52.657,228.750 49.915 C 225.908 47.173,221.296 42.710,218.500 39.997 C 215.704 37.284,210.004 31.769,205.833 27.742 C 192.379 14.748,192.898 15.292,193.429 14.762 C 193.868 14.322,194.136 14.451,195.552 15.785 M183.327 15.242 C 183.662 15.646,183.375 16.090,182.287 16.847 C 181.245 17.574,179.975 18.480,164.857 29.286 C 156.670 35.139,156.047 35.519,155.693 34.886 C 155.374 34.317,156.053 33.779,166.704 26.167 C 184.074 13.752,182.790 14.596,183.327 15.242 M190.355 18.872 C 193.108 21.779,195.102 23.877,197.759 26.661 C 198.681 27.626,200.184 29.204,201.100 30.167 C 202.016 31.129,203.443 32.629,204.272 33.500 C 206.154 35.478,206.290 35.710,205.834 36.166 C 205.311 36.689,205.155 36.553,199.813 30.925 C 185.430 15.771,186.375 16.847,186.944 16.278 C 187.356 15.866,187.902 16.280,190.355 18.872 M209.525 35.570 C 211.115 36.234,211.252 37.841,209.798 38.785 C 209.104 39.235,209.096 39.250,209.525 39.300 C 210.923 39.464,211.773 41.459,211.115 43.034 C 210.549 44.389,208.343 44.868,207.595 43.799 C 207.240 43.292,207.423 43.203,207.899 43.650 C 208.843 44.537,209.994 43.742,210.130 42.109 C 210.274 40.371,209.462 39.086,208.458 39.465 C 208.026 39.628,207.884 39.622,207.694 39.432 C 207.319 39.057,207.634 38.785,208.334 38.879 C 209.260 39.003,209.667 38.557,209.667 37.419 C 209.667 35.872,208.413 35.112,207.487 36.097 L 207.083 36.526 207.035 42.013 C 206.983 47.940,206.986 47.922,206.125 47.268 C 205.774 47.001,205.686 39.205,206.017 37.662 C 206.397 35.887,207.999 34.932,209.525 35.570 M151.724 38.042 C 151.948 38.340,152.260 39.033,152.418 39.583 C 152.576 40.133,152.775 40.763,152.860 40.984 C 152.962 41.245,152.955 41.445,152.841 41.559 C 152.720 41.680,152.667 41.625,152.667 41.377 C 152.667 41.180,152.597 40.977,152.513 40.925 C 152.428 40.872,152.311 40.613,152.253 40.348 C 151.999 39.192,150.333 38.104,150.333 39.095 C 150.333 39.226,150.249 39.333,150.146 39.333 C 149.904 39.333,150.081 38.405,150.423 37.884 C 150.774 37.348,151.245 37.405,151.724 38.042 M155.495 37.744 C 155.792 38.102,155.494 38.858,154.248 40.914 C 153.279 42.512,153.202 42.707,153.344 43.204 C 153.603 44.107,153.539 45.760,153.236 46.012 C 152.452 46.662,152.083 45.105,152.657 43.571 C 152.846 43.067,153.000 42.534,153.000 42.387 C 153.000 42.240,153.100 42.037,153.223 41.935 C 153.505 41.701,153.908 40.583,154.247 39.095 C 154.597 37.551,154.986 37.131,155.495 37.744 M217.314 48.292 C 217.581 48.544,218.688 49.728,219.774 50.923 C 221.928 53.292,222.633 54.062,229.233 61.250 C 233.880 66.311,234.061 66.576,233.105 66.911 C 232.563 67.101,232.921 67.439,228.185 62.250 C 226.847 60.783,224.819 58.571,223.679 57.333 C 222.539 56.096,221.264 54.708,220.845 54.250 C 220.426 53.792,219.205 52.474,218.132 51.321 C 216.028 49.062,215.681 48.509,216.102 48.089 C 216.469 47.722,216.762 47.771,217.314 48.292 M151.573 48.321 C 151.960 48.750,152.113 48.385,148.385 55.964 C 146.594 59.604,144.621 63.633,143.999 64.917 C 141.809 69.439,135.998 81.255,135.762 81.667 C 135.284 82.498,134.489 82.530,134.368 81.723 C 134.341 81.544,135.343 79.302,136.596 76.740 C 137.848 74.179,139.531 70.733,140.334 69.083 C 141.138 67.433,143.237 63.158,144.998 59.583 C 146.759 56.008,148.717 52.018,149.350 50.717 C 150.653 48.032,150.986 47.674,151.573 48.321 M209.470 48.711 C 209.508 49.042,208.952 50.258,207.487 53.044 C 199.418 68.392,199.858 67.639,199.208 67.232 C 198.536 66.811,198.388 67.123,206.789 51.250 C 208.453 48.107,208.432 48.136,208.986 48.200 C 209.317 48.238,209.429 48.356,209.470 48.711 M156.781 48.862 C 156.993 49.062,157.167 49.277,157.167 49.341 C 157.167 49.405,158.225 51.623,159.519 54.270 C 160.813 56.918,162.305 59.983,162.834 61.083 C 163.363 62.183,164.601 64.733,165.584 66.750 C 173.879 83.766,173.527 82.962,172.849 83.325 C 172.311 83.613,171.921 83.085,170.419 80.034 C 169.638 78.449,169.000 77.128,169.000 77.099 C 169.000 77.071,167.867 74.730,166.482 71.898 C 165.097 69.067,163.493 65.775,162.917 64.583 C 162.341 63.392,161.103 60.842,160.165 58.917 C 155.157 48.641,155.450 49.312,155.771 48.854 C 156.084 48.407,156.298 48.408,156.781 48.862 M36.827 54.163 C 37.218 54.373,37.500 55.187,37.500 56.108 C 37.500 56.507,37.579 56.833,37.676 56.833 C 38.086 56.833,39.165 55.764,39.258 55.264 C 39.411 54.451,39.918 53.875,40.285 54.100 C 40.803 54.419,40.735 55.052,40.092 55.894 C 39.468 56.712,39.306 57.659,39.673 58.344 C 39.898 58.765,40.583 58.759,40.880 58.334 C 41.187 57.897,41.341 58.077,41.219 58.728 C 40.865 60.610,39.167 59.997,39.167 57.987 C 39.167 57.455,39.108 56.983,39.035 56.938 C 38.720 56.744,37.515 57.935,37.219 58.734 C 36.852 59.724,36.461 60.032,36.069 59.641 C 35.697 59.268,35.888 58.498,36.505 57.894 C 37.086 57.323,37.250 55.465,36.736 55.268 C 36.196 55.060,35.824 55.170,35.667 55.583 C 35.449 56.155,35.333 56.105,35.333 55.439 C 35.333 54.429,36.100 53.774,36.827 54.163 M354.333 57.261 C 354.333 57.836,353.997 58.167,353.411 58.167 L 352.833 58.167 352.833 60.255 C 352.833 61.966,352.879 62.361,353.085 62.441 C 353.436 62.575,353.833 62.202,353.833 61.739 C 353.833 61.382,354.099 61.044,354.257 61.201 C 354.435 61.380,353.946 62.497,353.586 62.733 C 352.302 63.574,351.667 62.756,351.667 60.261 C 351.667 58.372,351.660 58.338,351.267 58.239 C 350.215 57.975,350.093 58.119,349.977 59.750 C 349.834 61.761,349.604 62.555,349.085 62.833 C 348.403 63.197,347.833 62.797,347.833 61.953 L 347.833 61.296 348.156 61.690 C 348.798 62.471,349.355 61.602,349.584 59.465 C 349.727 58.133,349.292 57.782,348.385 58.495 C 347.858 58.909,347.708 58.722,348.030 58.054 C 348.455 57.168,348.871 57.076,351.444 57.293 C 353.432 57.461,353.773 57.454,353.916 57.244 C 354.133 56.925,354.333 56.933,354.333 57.261 M48.424 66.072 C 52.804 68.861,58.895 72.741,61.043 74.111 C 62.074 74.769,63.817 75.879,64.917 76.578 C 72.744 81.556,72.752 81.562,72.399 82.125 C 72.073 82.644,71.539 82.555,70.371 81.788 C 69.754 81.383,68.125 80.339,66.750 79.468 C 65.375 78.596,61.512 76.136,58.167 74.001 C 54.821 71.865,50.546 69.144,48.667 67.953 C 44.366 65.228,44.089 64.977,44.700 64.367 C 45.069 63.998,45.418 64.158,48.424 66.072 M37.675 65.260 C 38.076 65.743,37.629 66.267,31.339 72.699 C 18.577 85.749,19.266 85.095,18.742 84.660 C 18.086 84.115,18.068 84.136,25.726 76.332 C 37.873 63.953,37.148 64.625,37.675 65.260 M358.453 65.301 C 358.564 65.371,360.270 67.564,362.244 70.173 C 366.849 76.258,368.612 78.581,371.106 81.845 C 373.346 84.777,373.408 84.883,373.155 85.355 C 372.689 86.225,372.303 85.839,368.138 80.333 C 362.662 73.096,361.162 71.120,359.360 68.776 C 357.499 66.356,357.187 65.794,357.493 65.425 C 357.724 65.146,358.128 65.094,358.453 65.301 M345.337 66.755 C 345.734 67.232,345.790 67.162,340.583 72.665 C 339.758 73.537,338.064 75.337,336.819 76.667 C 335.575 77.996,332.055 81.746,328.997 85.000 C 325.940 88.254,322.421 92.004,321.178 93.332 C 319.934 94.661,318.242 96.461,317.416 97.332 C 316.591 98.204,314.389 100.548,312.523 102.542 L 309.130 106.167 308.111 106.167 L 307.093 106.167 308.102 105.125 C 308.657 104.552,310.831 102.246,312.934 100.000 C 318.682 93.861,324.724 87.427,324.832 87.333 C 324.989 87.195,342.343 68.706,343.388 67.563 C 344.395 66.462,344.915 66.246,345.337 66.755 M340.283 67.248 C 340.435 67.568,340.528 67.857,340.488 67.890 C 340.313 68.040,337.419 69.347,337.070 69.435 C 336.746 69.516,336.642 69.439,336.447 68.975 C 336.146 68.256,336.166 68.230,337.477 67.645 C 338.085 67.374,338.771 67.044,339.000 66.914 C 339.666 66.533,339.981 66.615,340.283 67.248 M348.633 68.200 C 349.040 68.606,348.786 69.233,346.644 73.115 C 345.440 75.298,342.225 81.133,339.501 86.083 C 336.776 91.033,334.349 95.440,334.107 95.875 C 333.865 96.310,333.492 96.985,333.279 97.375 C 333.065 97.765,331.893 99.902,330.674 102.125 L 328.456 106.167 327.630 106.167 L 326.804 106.167 327.461 104.958 C 327.822 104.294,329.315 101.575,330.780 98.917 C 332.244 96.258,333.729 93.558,334.079 92.917 C 334.429 92.275,334.808 91.600,334.920 91.417 C 335.033 91.233,335.386 90.596,335.704 90.000 C 336.023 89.404,338.122 85.579,340.369 81.500 C 342.616 77.421,345.113 72.883,345.918 71.417 C 347.753 68.076,348.099 67.666,348.633 68.200 M354.275 68.128 C 354.477 68.256,355.030 69.201,358.249 74.917 C 361.544 80.766,364.318 85.685,367.108 90.625 C 367.690 91.656,368.643 93.344,369.224 94.375 C 371.472 98.361,374.267 103.248,374.624 103.819 C 374.830 104.148,375.089 104.604,375.201 104.833 C 375.313 105.063,375.577 105.531,375.788 105.875 L 376.171 106.500 375.460 106.496 C 374.450 106.491,374.260 106.273,372.421 103.000 C 371.520 101.396,370.315 99.258,369.745 98.250 C 369.174 97.242,367.715 94.654,366.501 92.500 C 365.287 90.346,363.490 87.158,362.508 85.417 C 361.525 83.675,359.834 80.675,358.748 78.750 C 357.663 76.825,356.011 73.900,355.077 72.250 C 354.142 70.600,353.328 69.089,353.267 68.893 C 353.086 68.312,353.762 67.800,354.275 68.128 M351.633 68.367 C 351.976 68.709,351.917 107.639,351.574 108.130 C 351.254 108.586,350.737 108.609,350.506 108.178 C 350.187 107.582,350.274 68.750,350.595 68.429 C 350.907 68.117,351.357 68.090,351.633 68.367 M199.489 71.334 C 200.521 72.617,201.434 73.709,201.517 73.760 C 201.602 73.813,201.667 72.995,201.667 71.850 C 201.667 69.795,201.664 69.785,200.917 69.250 C 200.615 69.033,200.698 69.010,201.792 69.005 C 203.029 69.000,203.288 69.128,202.625 69.419 C 202.257 69.580,202.249 69.645,202.205 72.792 C 202.178 74.715,202.095 76.000,201.998 76.000 C 201.910 76.000,200.843 74.757,199.627 73.237 L 197.417 70.475 197.369 72.862 L 197.321 75.250 197.753 75.625 L 198.185 76.000 196.968 75.995 C 195.992 75.991,195.816 75.954,196.083 75.808 C 196.783 75.425,196.833 75.202,196.833 72.475 C 196.833 69.757,196.842 69.794,196.083 69.250 C 195.778 69.031,195.828 69.010,196.680 69.005 L 197.611 69.000 199.489 71.334 M234.299 69.101 C 237.120 69.666,236.019 73.000,233.010 73.000 L 232.500 73.000 232.500 74.230 C 232.500 75.493,232.603 75.720,233.250 75.879 C 233.433 75.924,232.871 75.969,232.000 75.978 C 230.622 75.993,230.471 75.968,230.833 75.784 L 231.250 75.574 231.295 72.537 C 231.320 70.867,231.278 69.500,231.202 69.500 C 231.126 69.500,230.918 69.390,230.740 69.255 C 230.391 68.991,233.150 68.872,234.299 69.101 M334.668 69.542 C 335.152 70.335,335.114 70.399,333.792 71.000 C 333.127 71.302,332.301 71.682,331.955 71.844 L 331.326 72.140 331.001 71.503 C 330.618 70.750,330.607 70.763,332.250 70.024 C 332.892 69.735,333.604 69.393,333.833 69.264 C 334.063 69.136,334.270 69.024,334.294 69.015 C 334.318 69.007,334.487 69.244,334.668 69.542 M232.500 71.000 L 232.500 72.667 233.179 72.667 C 234.516 72.667,235.249 71.287,234.589 70.012 C 234.303 69.458,234.039 69.333,233.153 69.333 L 232.500 69.333 232.500 71.000 M205.000 73.149 C 205.093 75.457,205.223 75.720,206.116 75.407 L 206.583 75.243 206.630 73.368 C 206.676 71.549,206.666 71.489,206.297 71.347 C 205.785 71.149,206.235 70.954,207.026 71.030 L 207.583 71.083 207.627 73.000 C 207.666 74.709,207.708 74.948,208.018 75.206 L 208.365 75.496 207.974 75.642 C 207.006 76.005,206.859 76.016,206.700 75.733 C 206.554 75.471,206.516 75.470,206.151 75.726 C 204.780 76.686,204.000 75.805,204.000 73.295 C 204.000 71.584,203.978 71.463,203.653 71.378 C 203.119 71.238,203.625 70.987,204.333 71.040 L 204.917 71.083 205.000 73.149 M238.472 71.146 C 238.640 71.253,238.606 71.310,238.332 71.382 C 238.050 71.456,237.995 71.556,238.084 71.837 C 238.301 72.518,239.241 74.500,239.348 74.500 C 239.670 74.500,240.503 71.473,240.207 71.375 C 239.855 71.257,240.158 71.000,240.649 71.000 C 241.255 71.000,241.392 71.159,241.083 71.501 C 240.944 71.654,240.578 72.485,240.269 73.348 C 238.528 78.206,237.842 79.189,236.912 78.161 C 236.480 77.684,236.916 77.187,237.494 77.497 C 238.487 78.028,239.053 76.344,238.402 74.798 C 237.489 72.628,236.839 71.333,236.662 71.333 C 236.562 71.333,236.527 71.258,236.583 71.167 C 236.708 70.965,238.161 70.949,238.472 71.146 M329.238 72.192 C 329.600 72.919,329.583 72.969,328.875 73.255 C 328.531 73.393,327.727 73.762,327.087 74.073 C 325.792 74.705,325.793 74.705,325.422 73.960 C 325.164 73.444,325.482 72.855,326.029 72.837 C 326.090 72.835,326.690 72.573,327.362 72.254 C 328.862 71.542,328.913 71.541,329.238 72.192 M323.800 74.720 C 324.077 75.488,324.083 75.476,323.292 75.820 C 322.902 75.989,322.096 76.358,321.500 76.638 C 320.299 77.204,320.089 77.151,319.906 76.240 C 319.807 75.742,319.829 75.723,321.194 75.110 C 321.958 74.767,322.696 74.418,322.833 74.336 C 323.310 74.050,323.599 74.165,323.800 74.720 M318.330 77.158 C 318.637 77.900,318.533 78.006,316.655 78.862 C 314.761 79.725,314.602 79.716,314.405 78.734 C 314.306 78.240,314.338 78.208,315.360 77.746 C 318.122 76.499,318.062 76.511,318.330 77.158 M312.792 79.618 C 313.144 80.376,313.055 80.473,311.226 81.345 C 309.287 82.269,309.111 82.261,308.907 81.244 C 308.814 80.779,308.859 80.720,309.528 80.431 C 309.925 80.260,310.700 79.909,311.250 79.650 C 312.490 79.068,312.536 79.067,312.792 79.618 M307.349 82.246 C 307.687 82.969,307.698 82.957,305.917 83.784 C 303.909 84.717,303.825 84.722,303.528 83.955 C 303.395 83.609,303.315 83.305,303.351 83.279 C 303.560 83.129,306.778 81.690,306.917 81.684 C 307.008 81.681,307.203 81.933,307.349 82.246 M301.895 84.774 C 302.054 85.109,302.124 85.440,302.051 85.510 C 301.916 85.638,298.566 87.167,298.420 87.167 C 298.312 87.167,297.833 86.222,297.833 86.009 C 297.833 85.827,301.002 84.251,301.511 84.180 C 301.563 84.173,301.735 84.440,301.895 84.774 M140.164 87.129 L 140.167 88.342 140.658 88.088 C 142.033 87.377,143.388 88.413,143.395 90.180 C 143.402 92.137,141.351 93.454,139.658 92.579 L 139.167 92.325 139.167 89.397 C 139.167 86.609,139.151 86.465,138.833 86.382 C 138.312 86.245,138.438 86.052,139.208 85.803 C 140.101 85.516,140.161 85.598,140.164 87.129 M75.226 86.292 C 75.356 86.544,75.850 88.100,76.325 89.750 C 76.800 91.400,77.279 92.938,77.388 93.167 C 77.619 93.652,78.286 93.818,78.435 93.428 C 78.600 92.999,78.833 93.131,78.833 93.655 C 78.833 94.241,78.451 94.667,77.925 94.667 C 77.360 94.667,77.173 94.343,76.651 92.471 C 76.020 90.210,76.014 90.210,75.166 92.502 C 74.427 94.499,74.426 94.500,73.880 94.500 C 73.207 94.500,73.140 94.857,74.430 91.569 C 75.316 89.310,75.505 88.665,75.419 88.205 C 75.157 86.807,74.593 86.364,73.902 87.013 L 73.500 87.391 73.500 86.983 C 73.500 85.889,74.761 85.384,75.226 86.292 M133.500 86.058 C 132.997 86.323,132.985 86.262,134.045 88.750 C 135.057 91.126,135.145 91.212,135.512 90.196 C 135.667 89.767,136.040 88.748,136.340 87.931 L 136.885 86.445 136.507 86.139 C 136.131 85.835,136.134 85.833,137.129 85.833 L 138.128 85.833 137.713 86.292 C 137.481 86.548,136.799 88.058,136.166 89.719 C 134.693 93.586,134.943 93.499,133.674 90.583 C 131.990 86.714,131.786 86.320,131.346 86.080 C 130.951 85.865,131.037 85.846,132.417 85.842 C 133.756 85.839,133.872 85.862,133.500 86.058 M171.000 86.058 C 170.496 86.323,170.485 86.267,171.551 88.750 C 172.738 91.515,172.562 91.594,173.946 87.680 L 174.384 86.444 174.007 86.139 C 173.631 85.835,173.634 85.833,174.629 85.833 L 175.628 85.833 175.213 86.292 C 174.977 86.552,174.307 88.047,173.664 89.750 C 172.382 93.143,172.334 93.187,171.640 91.583 C 169.900 87.560,169.264 86.307,168.848 86.081 C 168.450 85.865,168.532 85.846,169.917 85.842 C 171.256 85.839,171.372 85.862,171.000 86.058 M296.386 87.256 C 296.540 87.580,296.667 87.881,296.667 87.926 C 296.667 88.028,293.208 89.667,292.994 89.667 C 292.866 89.667,292.333 88.637,292.333 88.391 C 292.333 88.353,292.840 88.093,293.458 87.813 C 294.077 87.533,294.883 87.160,295.250 86.985 C 296.104 86.578,296.057 86.566,296.386 87.256 M18.866 88.029 C 21.515 88.823,20.452 91.833,17.522 91.833 L 16.833 91.833 16.833 93.050 C 16.833 94.307,16.989 94.667,17.533 94.667 C 17.698 94.667,17.833 94.742,17.833 94.833 C 17.833 94.931,17.250 95.000,16.417 95.000 C 15.088 95.000,14.598 94.817,15.315 94.589 C 16.032 94.362,16.118 89.103,15.417 88.402 C 15.188 88.172,15.000 87.951,15.000 87.909 C 15.000 87.744,18.252 87.845,18.866 88.029 M178.282 88.235 C 178.732 88.622,178.752 88.705,178.807 90.422 C 178.859 92.017,178.899 92.215,179.186 92.290 C 179.437 92.356,179.466 92.424,179.316 92.604 C 179.049 92.926,178.328 92.890,178.072 92.542 C 177.868 92.264,177.834 92.264,177.362 92.542 C 176.419 93.095,175.585 92.827,175.406 91.914 C 175.269 91.216,175.775 90.625,176.914 90.153 C 177.911 89.740,178.065 89.511,177.860 88.750 C 177.669 88.037,176.613 87.994,176.532 88.696 C 176.437 89.519,175.500 89.711,175.500 88.908 C 175.500 88.016,177.472 87.539,178.282 88.235 M16.944 88.278 C 16.883 88.339,16.833 89.089,16.833 89.944 L 16.833 91.500 17.428 91.500 C 19.081 91.500,19.873 89.624,18.654 88.598 C 18.166 88.187,17.213 88.009,16.944 88.278 M140.667 88.549 C 140.175 88.797,139.919 92.073,140.369 92.359 C 141.474 93.060,142.691 91.761,142.434 90.155 C 142.200 88.690,141.552 88.102,140.667 88.549 M374.833 88.500 C 374.833 88.592,374.718 88.667,374.578 88.667 C 374.068 88.667,374.161 89.174,375.057 91.270 C 376.150 93.828,376.176 93.844,376.749 92.300 C 376.997 91.631,377.300 90.847,377.423 90.558 C 377.876 89.489,377.913 88.823,377.522 88.721 C 376.925 88.565,377.310 88.333,378.167 88.333 C 378.979 88.333,379.386 88.547,378.916 88.727 C 378.560 88.864,378.373 89.293,376.263 94.826 C 375.982 95.561,375.799 95.616,375.548 95.042 C 374.939 93.650,374.435 92.507,374.169 91.917 C 374.004 91.550,373.645 90.755,373.373 90.150 C 373.100 89.544,372.717 88.938,372.523 88.801 C 372.328 88.665,372.218 88.504,372.279 88.443 C 372.459 88.264,374.833 88.316,374.833 88.500 M290.886 89.756 C 291.040 90.080,291.167 90.383,291.167 90.430 C 291.167 90.477,290.510 90.819,289.708 91.189 C 288.906 91.560,288.120 91.932,287.961 92.015 C 287.483 92.265,287.350 92.195,287.081 91.551 C 286.778 90.828,286.644 90.949,288.917 89.889 C 290.744 89.037,290.549 89.050,290.886 89.756 M22.663 90.255 C 22.409 90.561,22.687 91.333,23.052 91.333 C 23.432 91.333,23.758 90.560,23.505 90.256 C 23.318 90.031,23.402 90.001,24.188 90.005 C 25.012 90.010,25.057 90.030,24.760 90.255 C 24.582 90.390,24.394 90.500,24.343 90.500 C 24.292 90.500,24.039 90.834,23.781 91.242 L 23.313 91.984 24.168 93.252 C 24.638 93.949,25.130 94.560,25.261 94.610 C 25.738 94.794,25.291 95.000,24.417 95.000 C 23.590 95.000,23.067 94.783,23.525 94.630 C 23.803 94.538,23.577 93.775,23.112 93.234 L 22.726 92.786 22.270 93.564 C 21.982 94.056,21.852 94.464,21.918 94.671 C 22.008 94.956,21.944 95.000,21.438 95.000 C 20.823 95.000,20.502 94.765,20.906 94.611 C 21.036 94.561,21.456 94.048,21.839 93.472 L 22.535 92.424 22.142 91.694 C 21.927 91.293,21.489 90.747,21.170 90.482 L 20.591 90.000 21.732 90.000 C 22.738 90.000,22.849 90.030,22.663 90.255 M177.415 90.202 C 176.447 90.718,176.030 91.630,176.533 92.133 C 177.127 92.727,178.002 92.052,177.997 91.005 C 177.994 90.200,177.833 89.979,177.415 90.202 M381.661 90.792 C 383.996 91.970,382.607 96.065,380.087 95.433 C 379.368 95.252,378.555 94.396,378.357 93.610 C 377.821 91.480,379.755 89.830,381.661 90.792 M379.610 91.137 C 379.237 91.549,379.092 92.770,379.317 93.605 C 380.074 96.416,382.552 95.214,381.842 92.380 C 381.492 90.981,380.334 90.337,379.610 91.137 M285.477 92.341 C 285.697 92.840,285.537 93.333,285.153 93.333 C 285.077 93.333,284.392 93.633,283.632 93.999 C 281.948 94.809,281.897 94.811,281.551 94.085 C 281.214 93.380,281.061 93.527,283.168 92.536 C 285.101 91.628,285.159 91.623,285.477 92.341 M94.758 100.013 C 100.070 102.128,106.517 104.690,109.083 105.707 C 114.205 107.735,114.745 108.065,114.059 108.750 C 113.682 109.128,114.004 109.239,104.418 105.419 C 99.742 103.556,94.079 101.306,91.833 100.419 C 84.426 97.494,84.167 97.373,84.167 96.832 C 84.167 96.368,84.335 96.206,84.842 96.180 C 84.984 96.173,89.446 97.897,94.758 100.013 M70.973 96.792 C 71.270 97.363,70.804 97.754,61.590 104.671 C 52.329 111.622,51.795 111.973,51.320 111.401 C 50.907 110.903,51.507 110.399,60.827 103.421 C 70.017 96.540,70.633 96.137,70.973 96.792 M274.565 98.865 C 274.623 99.157,274.595 99.472,274.502 99.565 C 274.388 99.678,274.333 99.668,274.333 99.533 C 274.333 98.948,273.684 98.667,272.333 98.667 L 271.000 98.667 271.000 100.250 L 271.000 101.833 271.963 101.833 C 272.966 101.833,273.667 101.521,273.667 101.074 C 273.667 100.942,273.742 100.833,273.833 100.833 C 273.927 100.833,274.000 101.306,274.000 101.917 C 274.000 102.528,273.927 103.000,273.833 103.000 C 273.742 103.000,273.667 102.912,273.667 102.805 C 273.667 102.275,273.115 102.000,272.051 102.000 L 270.987 102.000 271.035 103.542 L 271.083 105.083 272.000 105.137 C 273.314 105.214,274.071 104.945,274.502 104.247 C 274.699 103.928,274.922 103.667,274.997 103.667 C 275.126 103.667,274.796 104.990,274.580 105.339 C 274.469 105.519,269.289 105.567,269.112 105.390 C 269.052 105.329,269.170 105.196,269.376 105.093 C 269.739 104.913,269.751 104.824,269.797 101.995 L 269.844 99.083 269.381 98.709 L 268.917 98.335 271.688 98.334 L 274.458 98.333 274.565 98.865 M80.547 101.125 C 88.537 109.994,88.901 110.460,88.258 110.993 C 87.923 111.271,87.467 111.089,86.908 110.455 C 86.648 110.159,85.568 108.946,84.509 107.761 C 76.822 99.155,77.154 99.580,77.700 99.033 C 78.133 98.601,78.549 98.906,80.547 101.125 M278.660 100.663 C 279.126 100.912,279.333 101.737,279.333 103.339 C 279.333 104.704,279.357 104.801,279.708 104.906 C 280.068 105.012,280.061 105.028,279.545 105.287 C 279.041 105.540,278.985 105.538,278.676 105.258 C 278.365 104.977,278.304 104.976,277.669 105.230 C 276.798 105.578,276.639 105.571,276.198 105.160 C 275.367 104.386,275.908 103.330,277.488 102.640 C 278.398 102.243,278.696 101.342,278.085 100.835 C 277.705 100.519,277.001 100.763,276.997 101.212 C 276.992 101.981,276.169 102.336,276.032 101.627 C 275.875 100.810,277.690 100.144,278.660 100.663 M277.750 102.824 C 276.682 103.262,276.406 104.833,277.398 104.833 C 278.224 104.833,278.333 104.695,278.333 103.649 C 278.333 102.633,278.307 102.596,277.750 102.824 M324.394 110.396 C 326.801 111.402,325.635 114.167,322.804 114.167 L 322.167 114.167 322.167 115.425 L 322.167 116.683 322.708 116.918 C 323.225 117.143,323.177 117.154,321.667 117.158 C 320.284 117.161,320.136 117.135,320.500 116.951 L 320.917 116.740 320.962 113.704 C 320.987 112.033,320.945 110.667,320.869 110.667 C 320.793 110.667,320.585 110.557,320.407 110.422 C 319.950 110.076,323.573 110.053,324.394 110.396 M298.231 110.513 C 301.082 111.230,300.351 114.333,297.332 114.333 L 296.486 114.333 296.535 115.623 C 296.582 116.870,296.600 116.922,297.083 117.165 L 297.583 117.417 296.792 117.467 C 295.237 117.567,294.338 117.443,294.886 117.204 L 295.356 117.000 295.303 113.963 C 295.251 111.008,295.240 110.921,294.876 110.740 C 294.035 110.321,296.742 110.138,298.231 110.513 M380.067 110.585 C 380.683 110.772,380.940 110.786,381.112 110.642 C 381.443 110.369,381.518 110.519,381.621 111.653 C 381.730 112.856,381.504 112.988,381.007 112.014 C 379.659 109.372,376.667 110.749,376.667 114.010 C 376.667 116.406,378.133 117.640,380.292 117.062 C 380.901 116.898,380.864 114.389,380.250 114.235 C 379.410 114.024,379.869 113.833,381.208 113.837 C 382.543 113.841,382.572 113.849,382.215 114.129 C 381.902 114.373,381.838 114.607,381.798 115.665 C 381.753 116.843,381.724 116.926,381.290 117.133 C 380.506 117.508,378.660 117.580,377.732 117.272 C 373.289 115.796,375.583 109.225,380.067 110.585 M322.167 112.167 L 322.167 113.833 322.846 113.833 C 324.328 113.833,325.082 112.042,324.052 110.967 C 323.697 110.597,323.455 110.500,322.885 110.500 L 322.167 110.500 322.167 112.167 M296.571 110.888 C 296.524 111.010,296.508 111.779,296.535 112.597 L 296.583 114.083 297.242 114.061 C 298.884 114.007,299.430 111.656,297.976 110.904 C 297.399 110.606,296.683 110.597,296.571 110.888 M349.516 111.379 C 351.231 112.536,350.342 114.578,348.024 114.807 L 346.917 114.917 346.868 116.123 C 346.819 117.328,346.819 117.330,347.368 117.664 L 347.917 117.999 346.333 117.993 C 344.834 117.987,344.774 117.973,345.208 117.738 L 345.667 117.489 345.667 114.500 L 345.667 111.511 345.208 111.252 C 344.779 111.010,344.886 110.996,346.917 111.041 C 348.650 111.078,349.170 111.146,349.516 111.379 M346.905 111.388 C 346.667 112.008,346.917 114.580,347.222 114.638 C 348.620 114.905,349.709 113.149,348.906 111.923 C 348.492 111.292,347.086 110.916,346.905 111.388 M327.536 112.524 C 327.583 112.667,327.688 112.667,327.955 112.524 C 329.832 111.520,331.359 113.708,330.344 115.945 C 329.903 116.915,329.368 117.228,328.324 117.128 L 327.486 117.048 327.535 118.149 C 327.579 119.146,327.619 119.255,327.958 119.303 C 328.820 119.426,328.240 119.667,327.083 119.667 C 325.899 119.667,325.439 119.475,326.167 119.285 C 326.709 119.143,326.682 113.223,326.138 113.022 C 325.736 112.873,325.876 112.726,326.638 112.496 C 327.279 112.303,327.464 112.309,327.536 112.524 M304.167 112.692 C 304.167 112.797,303.604 113.805,302.917 114.933 C 302.229 116.060,301.667 117.024,301.667 117.075 C 301.667 117.310,303.847 117.159,303.940 116.917 C 304.091 116.522,304.333 116.625,304.333 117.083 L 304.333 117.500 302.320 117.500 L 300.306 117.500 300.685 116.875 C 301.242 115.957,302.678 113.643,302.967 113.200 L 303.216 112.816 302.154 112.866 C 301.213 112.911,301.068 112.964,300.882 113.333 C 300.676 113.742,300.672 113.737,300.669 113.125 L 300.667 112.500 302.417 112.500 C 303.624 112.500,304.167 112.559,304.167 112.692 M384.333 114.380 C 384.333 116.841,384.859 117.641,385.833 116.667 C 386.397 116.103,386.331 113.054,385.750 112.833 C 385.111 112.590,385.247 112.500,386.250 112.500 L 387.167 112.500 387.167 114.583 C 387.167 116.324,387.208 116.667,387.417 116.667 C 387.923 116.667,387.645 116.976,386.917 117.224 C 386.271 117.444,386.167 117.446,386.167 117.240 C 386.167 116.934,385.842 116.941,385.426 117.255 C 384.241 118.152,383.500 117.301,383.500 115.046 C 383.500 113.453,383.463 113.232,383.138 112.886 L 382.775 112.500 383.554 112.500 L 384.333 112.500 384.333 114.380 M327.762 113.095 C 327.354 113.503,327.387 116.346,327.805 116.724 C 329.170 117.959,330.528 114.579,329.239 113.155 C 328.888 112.766,328.122 112.736,327.762 113.095 M352.333 115.017 C 352.438 117.437,352.778 117.954,353.796 117.241 C 354.478 116.763,354.320 113.333,353.616 113.333 C 353.369 113.333,353.319 113.281,353.444 113.156 C 353.542 113.058,353.950 113.002,354.352 113.031 L 355.083 113.083 355.130 115.125 C 355.168 116.788,355.222 117.167,355.422 117.167 C 355.888 117.167,355.664 117.465,354.997 117.732 C 354.177 118.060,354.167 118.060,354.167 117.750 C 354.167 117.435,353.847 117.438,353.426 117.755 C 352.220 118.668,351.500 117.828,351.500 115.509 C 351.500 113.876,351.465 113.661,351.168 113.453 C 350.729 113.145,350.932 112.972,351.661 113.034 L 352.250 113.083 352.333 115.017 M80.250 113.667 C 80.307 113.758,80.207 113.833,80.028 113.833 C 79.461 113.833,79.524 114.196,80.482 116.454 C 81.698 119.320,81.533 119.389,82.947 115.421 L 83.361 114.259 83.014 113.978 C 82.502 113.563,82.574 113.500,83.556 113.500 C 84.642 113.500,84.762 113.597,84.244 114.059 C 83.982 114.292,83.440 115.478,82.683 117.475 C 81.199 121.386,81.402 121.257,80.415 118.917 C 79.217 116.076,78.187 113.997,77.927 113.898 C 77.784 113.843,77.667 113.731,77.667 113.649 C 77.667 113.443,80.122 113.460,80.250 113.667 M50.587 116.400 C 51.227 117.811,51.806 118.932,51.874 118.890 C 52.006 118.810,52.334 118.114,53.494 115.458 L 54.203 113.833 54.810 113.833 L 55.417 113.833 55.360 117.047 L 55.304 120.261 55.730 120.489 C 56.378 120.836,56.097 121.000,54.851 121.000 C 53.529 121.000,53.364 120.905,53.922 120.466 C 54.324 120.150,54.333 120.088,54.333 117.849 C 54.333 114.974,54.292 114.945,53.301 117.127 C 52.854 118.111,52.420 119.067,52.335 119.250 C 52.251 119.433,52.070 119.865,51.933 120.208 C 51.614 121.009,51.468 120.995,51.090 120.125 C 50.326 118.362,49.248 116.054,49.051 115.755 C 48.867 115.476,48.833 115.789,48.833 117.784 C 48.833 120.093,48.842 120.149,49.244 120.466 C 49.470 120.644,49.608 120.837,49.550 120.895 C 49.384 121.061,47.777 121.013,47.500 120.833 C 47.281 120.692,47.283 120.671,47.516 120.669 C 48.447 120.660,48.778 114.689,47.872 114.238 C 47.189 113.898,47.265 113.833,48.351 113.833 L 49.424 113.833 50.587 116.400 M112.000 114.000 C 112.000 114.092,111.885 114.167,111.745 114.167 C 111.355 114.167,111.279 114.583,111.558 115.197 C 112.220 116.659,112.724 117.807,112.952 118.375 C 113.357 119.385,113.490 119.175,114.698 115.617 L 115.083 114.483 114.667 114.162 L 114.250 113.841 115.292 113.837 C 116.269 113.834,116.640 114.013,116.091 114.224 C 115.755 114.353,115.376 115.166,114.235 118.208 C 113.693 119.652,113.169 120.833,113.071 120.833 C 112.888 120.833,112.541 120.133,111.338 117.333 C 110.474 115.321,110.020 114.490,109.591 114.131 C 109.263 113.856,109.304 113.844,110.625 113.839 C 111.434 113.836,112.000 113.902,112.000 114.000 M86.833 115.917 C 86.833 116.231,87.153 116.229,87.574 115.911 C 88.033 115.564,88.667 115.608,89.104 116.020 L 89.480 116.373 90.051 116.020 C 91.612 115.055,92.333 115.742,92.333 118.194 C 92.333 119.817,92.367 120.018,92.667 120.205 C 93.227 120.556,93.047 120.667,91.917 120.667 C 90.872 120.667,90.477 120.465,91.167 120.285 C 91.642 120.161,91.678 116.755,91.208 116.399 C 89.813 115.339,88.604 119.019,89.941 120.258 L 90.382 120.667 89.191 120.667 C 88.056 120.667,87.619 120.472,88.333 120.285 C 89.130 120.077,88.704 116.167,87.885 116.167 C 86.800 116.167,86.233 119.707,87.208 120.388 C 87.564 120.635,87.517 120.649,86.333 120.649 C 85.149 120.649,85.103 120.635,85.458 120.388 C 85.808 120.144,85.833 120.004,85.833 118.332 C 85.833 116.616,85.817 116.534,85.458 116.429 C 85.124 116.331,85.165 116.284,85.833 116.002 C 86.759 115.611,86.833 115.605,86.833 115.917 M59.670 116.169 C 60.108 116.403,60.331 117.343,60.332 118.958 C 60.333 120.271,60.350 120.334,60.708 120.339 L 61.083 120.344 60.690 120.672 C 60.190 121.089,59.891 121.087,59.628 120.667 C 59.424 120.340,59.000 120.204,59.000 120.467 C 59.000 120.858,57.794 121.036,57.355 120.710 C 56.364 119.973,56.850 118.801,58.416 118.152 C 59.294 117.788,59.333 117.745,59.333 117.156 C 59.333 116.009,58.241 115.764,57.895 116.833 C 57.678 117.505,57.117 117.653,57.033 117.061 C 56.918 116.259,58.708 115.654,59.670 116.169 M119.666 118.168 C 118.933 119.361,118.333 120.411,118.333 120.502 C 118.333 120.845,120.313 120.694,120.539 120.333 C 120.833 119.862,121.031 119.920,120.969 120.458 L 120.917 120.917 119.204 120.964 C 116.776 121.032,116.806 121.114,118.348 118.610 C 119.915 116.066,119.897 116.167,118.770 116.167 C 117.855 116.167,117.603 116.310,117.454 116.917 C 117.407 117.109,117.364 116.985,117.353 116.625 L 117.333 116.000 119.166 116.000 L 120.998 116.000 119.666 118.168 M58.355 118.591 C 57.463 119.341,57.530 120.333,58.473 120.333 C 59.140 120.333,59.333 120.046,59.333 119.050 C 59.333 118.023,59.138 117.932,58.355 118.591 M56.800 125.033 C 57.152 125.386,57.028 125.843,55.490 129.833 C 54.660 131.987,53.680 134.537,53.312 135.500 C 52.365 137.975,51.988 138.421,51.367 137.800 C 50.993 137.427,50.861 137.820,54.946 127.177 C 55.867 124.778,56.181 124.415,56.800 125.033 M58.833 141.578 L 58.833 142.989 59.413 142.647 C 61.253 141.561,62.885 144.200,61.649 146.263 C 61.176 147.052,60.399 147.394,59.288 147.302 C 57.812 147.179,57.833 147.230,57.833 143.891 C 57.833 141.065,57.824 140.986,57.472 140.855 C 57.070 140.707,57.209 140.560,57.971 140.330 C 58.829 140.071,58.833 140.077,58.833 141.578 M51.095 142.846 C 52.448 145.813,52.362 145.726,52.836 144.623 C 53.042 144.143,53.378 143.375,53.582 142.917 C 53.786 142.458,54.127 141.690,54.340 141.208 L 54.726 140.333 55.821 140.338 C 56.708 140.343,56.853 140.378,56.583 140.526 C 55.881 140.910,55.833 141.127,55.833 143.923 C 55.833 146.754,55.876 146.925,56.667 147.215 C 56.804 147.266,56.242 147.311,55.417 147.316 C 53.937 147.324,53.923 147.321,54.375 147.040 L 54.833 146.756 54.833 144.261 C 54.833 142.676,54.775 141.825,54.674 141.926 C 54.528 142.072,53.071 145.198,52.431 146.738 C 52.076 147.591,52.037 147.543,50.740 144.656 C 49.321 141.500,49.333 141.504,49.333 144.185 C 49.333 146.515,49.397 146.765,50.083 147.141 C 50.348 147.286,50.141 147.323,49.083 147.324 L 47.750 147.326 48.292 147.059 L 48.833 146.792 48.833 143.808 L 48.833 140.825 48.417 140.667 C 47.770 140.421,47.916 140.333,48.974 140.333 L 49.949 140.333 51.095 142.846 M59.104 143.253 C 58.655 143.702,58.713 146.757,59.175 147.004 C 60.223 147.565,61.083 146.699,61.083 145.083 C 61.083 143.437,59.960 142.397,59.104 143.253 " stroke="none" fill="#fbfbfb" fill-rule="evenodd"></path><path id="path1" d="M183.750 7.235 C 181.056 8.433,181.732 12.837,184.609 12.832 C 185.275 12.831,185.915 12.499,186.537 11.832 L 186.900 11.443 187.022 11.899 C 187.289 12.898,188.118 13.189,188.473 12.409 C 188.827 11.633,188.698 11.278,188.233 11.743 C 187.485 12.491,187.029 11.248,187.487 9.709 C 188.116 7.598,188.138 6.963,187.579 7.028 C 187.103 7.084,187.015 7.232,186.756 8.398 L 186.649 8.878 186.349 8.314 C 185.762 7.209,184.752 6.790,183.750 7.235 M185.641 7.722 C 186.187 8.304,186.442 9.751,186.194 10.860 C 185.566 13.668,183.268 13.050,183.287 10.079 C 183.301 7.881,184.584 6.597,185.641 7.722 M197.762 12.429 C 197.245 12.946,197.609 13.498,198.667 13.801 C 198.987 13.892,201.237 14.580,203.667 15.329 C 206.096 16.078,208.421 16.789,208.833 16.909 C 209.246 17.029,210.596 17.443,211.833 17.829 C 213.071 18.215,214.421 18.628,214.833 18.747 C 215.246 18.866,218.321 19.804,221.667 20.832 C 225.012 21.859,228.688 22.986,229.833 23.336 C 230.979 23.686,233.679 24.510,235.833 25.168 C 237.987 25.827,240.688 26.651,241.833 27.001 C 242.979 27.351,245.304 28.063,247.000 28.583 C 248.696 29.103,251.433 29.941,253.083 30.444 C 254.733 30.947,257.058 31.660,258.250 32.028 C 259.442 32.396,260.754 32.795,261.167 32.916 C 262.296 33.245,267.268 34.762,270.000 35.611 C 272.399 36.356,275.735 37.377,281.333 39.078 C 282.938 39.566,286.012 40.505,288.167 41.164 C 290.321 41.823,292.946 42.627,294.000 42.949 C 295.054 43.271,297.379 43.983,299.167 44.530 C 300.954 45.077,303.729 45.925,305.333 46.414 C 306.938 46.904,309.637 47.730,311.333 48.250 C 317.085 50.015,318.748 50.522,319.500 50.741 C 319.912 50.862,321.600 51.375,323.250 51.882 C 324.900 52.389,328.387 53.454,331.000 54.250 C 333.612 55.045,337.700 56.302,340.083 57.042 C 344.896 58.537,345.884 58.695,345.967 57.986 C 346.038 57.373,345.877 57.288,343.000 56.418 C 341.579 55.989,339.329 55.299,338.000 54.886 C 336.671 54.472,334.233 53.723,332.583 53.221 C 330.933 52.719,328.608 52.007,327.417 51.639 C 326.225 51.271,324.912 50.872,324.500 50.752 C 324.087 50.632,322.362 50.107,320.667 49.584 C 318.971 49.061,316.646 48.349,315.500 48.001 C 314.354 47.653,311.654 46.828,309.500 46.167 C 301.954 43.852,301.244 43.635,300.500 43.417 C 300.087 43.296,298.737 42.883,297.500 42.500 C 296.262 42.117,294.912 41.704,294.500 41.583 C 294.087 41.463,292.775 41.062,291.583 40.694 C 290.392 40.326,288.048 39.607,286.375 39.096 C 284.702 38.585,281.965 37.749,280.292 37.237 C 278.619 36.726,276.275 36.007,275.083 35.640 C 273.892 35.272,272.654 34.896,272.333 34.803 C 272.012 34.711,270.662 34.297,269.333 33.883 C 268.004 33.469,266.654 33.056,266.333 32.966 C 266.012 32.876,264.662 32.465,263.333 32.052 C 261.080 31.351,259.831 30.970,252.042 28.600 C 250.415 28.105,246.346 26.861,243.000 25.834 C 234.844 23.333,231.069 22.181,230.167 21.917 C 229.429 21.701,227.282 21.042,222.833 19.667 C 221.596 19.285,220.246 18.872,219.833 18.751 C 219.421 18.630,218.071 18.217,216.833 17.834 C 215.596 17.451,214.321 17.065,214.000 16.977 C 213.679 16.888,213.229 16.749,213.000 16.667 C 212.771 16.585,210.446 15.869,207.833 15.077 C 205.221 14.284,202.013 13.305,200.704 12.901 C 197.987 12.062,198.109 12.082,197.762 12.429 M174.167 13.789 C 173.938 13.831,173.671 13.930,173.574 14.009 C 173.407 14.146,172.318 14.465,163.833 16.866 C 161.862 17.423,158.862 18.273,157.167 18.754 C 155.471 19.235,151.496 20.359,148.333 21.252 C 145.171 22.146,141.196 23.270,139.500 23.751 C 137.804 24.232,133.829 25.354,130.667 26.244 C 127.504 27.134,123.867 28.188,122.583 28.587 C 121.300 28.985,119.125 29.627,117.750 30.013 C 116.375 30.399,112.775 31.417,109.750 32.275 C 100.026 35.031,97.380 35.781,90.417 37.752 C 86.658 38.816,82.021 40.132,80.111 40.677 C 78.202 41.221,76.528 41.667,76.391 41.667 C 76.156 41.667,65.702 44.611,55.583 47.527 C 53.017 48.266,50.692 48.932,50.417 49.005 C 50.142 49.078,49.467 49.266,48.917 49.422 C 48.367 49.579,47.754 49.743,47.555 49.787 C 47.004 49.909,46.449 50.578,46.574 50.970 C 46.769 51.584,46.944 51.576,49.583 50.830 C 49.950 50.726,51.938 50.164,54.000 49.582 C 56.063 48.999,60.300 47.801,63.417 46.921 C 66.533 46.040,69.571 45.175,70.167 44.999 C 71.356 44.647,79.949 42.206,80.750 41.992 C 81.025 41.919,82.075 41.622,83.083 41.333 C 84.092 41.044,85.142 40.748,85.417 40.675 C 85.692 40.602,87.679 40.040,89.833 39.427 C 91.987 38.814,95.175 37.909,96.917 37.417 C 101.608 36.089,112.505 33.000,117.167 31.675 C 119.412 31.037,123.275 29.940,125.750 29.237 C 128.225 28.534,130.475 27.899,130.750 27.825 C 131.025 27.752,132.075 27.456,133.083 27.167 C 134.092 26.878,135.142 26.581,135.417 26.508 C 136.259 26.283,144.848 23.842,146.000 23.500 C 147.108 23.171,151.016 22.064,151.917 21.825 C 152.192 21.752,153.242 21.456,154.250 21.167 C 155.258 20.878,156.308 20.581,156.583 20.507 C 156.858 20.432,157.908 20.131,158.917 19.837 C 159.925 19.543,160.975 19.242,161.250 19.169 C 161.807 19.021,162.712 18.766,165.417 17.996 C 166.425 17.710,167.475 17.414,167.750 17.340 C 168.025 17.266,169.075 16.966,170.083 16.674 C 172.442 15.991,173.308 15.746,174.797 15.342 C 176.248 14.949,176.333 14.902,176.333 14.504 C 176.333 13.685,175.761 13.496,174.167 13.789 M193.429 14.762 C 192.898 15.292,192.379 14.748,205.833 27.742 C 210.004 31.769,215.704 37.284,218.500 39.997 C 221.296 42.710,225.908 47.173,228.750 49.915 C 231.592 52.657,234.967 55.921,236.250 57.168 C 240.971 61.755,244.206 64.888,249.417 69.916 C 252.350 72.746,256.025 76.306,257.583 77.826 C 259.142 79.346,262.479 82.585,265.000 85.024 C 273.348 93.102,273.109 92.894,273.579 92.503 C 274.201 91.988,273.914 91.623,269.628 87.481 C 267.316 85.246,264.109 82.138,262.503 80.575 C 260.897 79.013,257.221 75.454,254.333 72.668 C 251.446 69.882,247.808 66.358,246.250 64.837 C 244.692 63.317,241.204 59.938,238.500 57.329 C 235.796 54.720,232.346 51.385,230.833 49.919 C 229.321 48.453,227.146 46.347,226.000 45.239 C 224.854 44.131,222.687 42.031,221.183 40.571 C 219.680 39.111,218.211 37.692,217.919 37.417 C 217.406 36.933,215.605 35.191,210.167 29.919 C 208.746 28.542,206.233 26.107,204.583 24.509 C 202.933 22.911,200.533 20.583,199.250 19.336 C 194.010 14.245,193.974 14.217,193.429 14.762 M179.963 16.708 C 168.473 24.835,155.831 33.980,155.698 34.261 C 155.479 34.723,155.745 35.167,156.241 35.167 C 156.488 35.167,159.656 33.004,164.857 29.286 C 179.975 18.480,181.245 17.574,182.287 16.847 C 183.375 16.090,183.662 15.646,183.327 15.242 C 182.932 14.767,182.347 15.022,179.963 16.708 M186.944 16.278 C 186.472 16.750,186.898 17.316,190.876 21.508 C 206.658 38.141,205.244 36.756,205.834 36.166 C 206.290 35.710,206.154 35.478,204.272 33.500 C 203.443 32.629,202.016 31.129,201.100 30.167 C 200.184 29.204,198.681 27.626,197.759 26.661 C 195.102 23.877,193.108 21.779,190.355 18.872 C 187.902 16.280,187.356 15.866,186.944 16.278 M207.703 35.543 C 206.918 35.794,206.232 36.655,206.017 37.662 C 205.686 39.205,205.774 47.001,206.125 47.268 C 206.986 47.922,206.983 47.940,207.035 42.013 L 207.083 36.526 207.487 36.097 C 208.413 35.112,209.667 35.872,209.667 37.419 C 209.667 38.557,209.260 39.003,208.334 38.879 C 207.634 38.785,207.319 39.057,207.694 39.432 C 207.884 39.622,208.026 39.628,208.458 39.465 C 209.462 39.086,210.274 40.371,210.130 42.109 C 209.994 43.742,208.843 44.537,207.899 43.650 C 207.423 43.203,207.240 43.292,207.595 43.799 C 208.343 44.868,210.549 44.389,211.115 43.034 C 211.773 41.459,210.923 39.464,209.525 39.300 C 209.096 39.250,209.104 39.235,209.798 38.785 C 211.978 37.370,210.266 34.721,207.703 35.543 M150.423 37.884 C 150.081 38.405,149.904 39.333,150.146 39.333 C 150.249 39.333,150.333 39.226,150.333 39.095 C 150.333 38.104,151.999 39.192,152.253 40.348 C 152.311 40.613,152.428 40.872,152.513 40.925 C 152.597 40.977,152.667 41.180,152.667 41.377 C 152.667 41.625,152.720 41.680,152.841 41.559 C 152.955 41.445,152.962 41.245,152.860 40.984 C 152.775 40.763,152.576 40.133,152.418 39.583 C 151.905 37.794,150.991 37.016,150.423 37.884 M154.692 37.720 C 154.591 37.841,154.391 38.460,154.247 39.095 C 153.908 40.583,153.505 41.701,153.223 41.935 C 153.100 42.037,153.000 42.240,153.000 42.387 C 153.000 42.534,152.846 43.067,152.657 43.571 C 152.083 45.105,152.452 46.662,153.236 46.012 C 153.539 45.760,153.603 44.107,153.344 43.204 C 153.202 42.707,153.279 42.512,154.248 40.914 C 155.494 38.858,155.792 38.102,155.495 37.744 C 155.244 37.441,154.931 37.432,154.692 37.720 M216.102 48.089 C 215.681 48.509,216.028 49.062,218.132 51.321 C 219.205 52.474,220.426 53.792,220.845 54.250 C 221.264 54.708,222.539 56.096,223.679 57.333 C 224.819 58.571,226.847 60.783,228.185 62.250 C 232.921 67.439,232.563 67.101,233.105 66.911 C 234.061 66.576,233.880 66.311,229.233 61.250 C 222.633 54.062,221.928 53.292,219.774 50.923 C 216.789 47.639,216.655 47.535,216.102 48.089 M150.791 48.180 C 150.630 48.274,149.982 49.415,149.350 50.717 C 148.717 52.018,146.759 56.008,144.998 59.583 C 143.237 63.158,141.138 67.433,140.334 69.083 C 139.531 70.733,137.848 74.179,136.596 76.740 C 135.343 79.302,134.341 81.544,134.368 81.723 C 134.489 82.530,135.284 82.498,135.762 81.667 C 135.998 81.255,141.809 69.439,143.999 64.917 C 144.621 63.633,146.594 59.604,148.385 55.964 C 152.113 48.385,151.960 48.750,151.573 48.321 C 151.241 47.955,151.193 47.946,150.791 48.180 M208.378 48.367 C 208.281 48.486,207.566 49.783,206.789 51.250 C 198.388 67.123,198.536 66.811,199.208 67.232 C 199.810 67.610,199.925 67.425,204.400 58.917 C 210.154 47.973,210.006 48.319,208.986 48.200 C 208.749 48.172,208.475 48.247,208.378 48.367 M155.771 48.854 C 155.450 49.312,155.157 48.641,160.165 58.917 C 161.103 60.842,162.341 63.392,162.917 64.583 C 163.493 65.775,165.097 69.067,166.482 71.898 C 167.867 74.730,169.000 77.071,169.000 77.099 C 169.000 77.128,169.638 78.449,170.419 80.034 C 171.921 83.085,172.311 83.613,172.849 83.325 C 173.527 82.962,173.879 83.766,165.584 66.750 C 164.601 64.733,163.363 62.183,162.834 61.083 C 162.305 59.983,160.813 56.918,159.519 54.270 C 158.225 51.623,157.167 49.405,157.167 49.341 C 157.167 48.742,156.109 48.372,155.771 48.854 M35.679 54.439 C 35.485 54.686,35.333 55.124,35.333 55.439 C 35.333 56.105,35.449 56.155,35.667 55.583 C 35.824 55.170,36.196 55.060,36.736 55.268 C 37.250 55.465,37.086 57.323,36.505 57.894 C 35.888 58.498,35.697 59.268,36.069 59.641 C 36.461 60.032,36.852 59.724,37.219 58.734 C 37.515 57.935,38.720 56.744,39.035 56.938 C 39.108 56.983,39.167 57.455,39.167 57.987 C 39.167 59.997,40.865 60.610,41.219 58.728 C 41.341 58.077,41.187 57.897,40.880 58.334 C 40.583 58.759,39.898 58.765,39.673 58.344 C 39.306 57.659,39.468 56.712,40.092 55.894 C 40.735 55.052,40.803 54.419,40.285 54.100 C 39.918 53.875,39.411 54.451,39.258 55.264 C 39.165 55.764,38.086 56.833,37.676 56.833 C 37.579 56.833,37.500 56.507,37.500 56.108 C 37.500 54.314,36.499 53.396,35.679 54.439 M353.916 57.244 C 353.773 57.454,353.432 57.461,351.444 57.293 C 348.871 57.076,348.455 57.168,348.030 58.054 C 347.708 58.722,347.858 58.909,348.385 58.495 C 349.292 57.782,349.727 58.133,349.584 59.465 C 349.355 61.602,348.798 62.471,348.156 61.690 L 347.833 61.296 347.833 61.953 C 347.833 62.797,348.403 63.197,349.085 62.833 C 349.604 62.555,349.834 61.761,349.977 59.750 C 350.093 58.119,350.215 57.975,351.267 58.239 C 351.660 58.338,351.667 58.372,351.667 60.261 C 351.667 62.756,352.302 63.574,353.586 62.733 C 353.946 62.497,354.435 61.380,354.257 61.201 C 354.099 61.044,353.833 61.382,353.833 61.739 C 353.833 62.202,353.436 62.575,353.085 62.441 C 352.879 62.361,352.833 61.966,352.833 60.255 L 352.833 58.167 353.411 58.167 C 353.811 58.167,354.041 58.068,354.161 57.844 C 354.500 57.211,354.289 56.695,353.916 57.244 M44.700 64.367 C 44.089 64.977,44.366 65.228,48.667 67.953 C 50.546 69.144,54.821 71.865,58.167 74.001 C 61.512 76.136,65.375 78.596,66.750 79.468 C 68.125 80.339,69.754 81.383,70.371 81.788 C 71.539 82.555,72.073 82.644,72.399 82.125 C 72.752 81.562,72.744 81.556,64.917 76.578 C 63.817 75.879,62.074 74.769,61.043 74.111 C 60.013 73.454,57.426 71.805,55.293 70.447 C 44.289 63.437,45.141 63.926,44.700 64.367 M32.886 69.040 C 17.010 85.201,18.033 84.071,18.742 84.660 C 19.266 85.095,18.577 85.749,31.339 72.699 C 37.629 66.267,38.076 65.743,37.675 65.260 C 37.226 64.720,36.800 65.057,32.886 69.040 M357.493 65.425 C 357.187 65.794,357.499 66.356,359.360 68.776 C 361.162 71.120,362.662 73.096,368.138 80.333 C 372.303 85.839,372.689 86.225,373.155 85.355 C 373.408 84.883,373.346 84.777,371.106 81.845 C 368.612 78.581,366.849 76.258,362.244 70.173 C 360.270 67.564,358.564 65.371,358.453 65.301 C 358.128 65.094,357.724 65.146,357.493 65.425 M343.388 67.563 C 342.343 68.706,324.989 87.195,324.832 87.333 C 324.724 87.427,318.682 93.861,312.934 100.000 C 310.831 102.246,308.657 104.552,308.102 105.125 L 307.093 106.167 308.111 106.167 L 309.130 106.167 312.523 102.542 C 314.389 100.548,316.591 98.204,317.416 97.332 C 318.242 96.461,319.934 94.661,321.178 93.332 C 322.421 92.004,325.940 88.254,328.997 85.000 C 332.055 81.746,335.575 77.996,336.819 76.667 C 338.064 75.337,339.758 73.537,340.583 72.665 C 345.790 67.162,345.734 67.232,345.337 66.755 C 344.915 66.246,344.395 66.462,343.388 67.563 M339.000 66.914 C 338.771 67.044,338.085 67.374,337.477 67.645 C 336.166 68.230,336.146 68.256,336.447 68.975 C 336.642 69.439,336.746 69.516,337.070 69.435 C 337.419 69.347,340.313 68.040,340.488 67.890 C 340.528 67.857,340.435 67.568,340.283 67.248 C 339.981 66.615,339.666 66.533,339.000 66.914 M347.720 68.375 C 347.535 68.581,346.724 69.950,345.918 71.417 C 345.113 72.883,342.616 77.421,340.369 81.500 C 338.122 85.579,336.023 89.404,335.704 90.000 C 335.386 90.596,335.033 91.233,334.920 91.417 C 334.808 91.600,334.429 92.275,334.079 92.917 C 333.729 93.558,332.244 96.258,330.780 98.917 C 329.315 101.575,327.822 104.294,327.461 104.958 L 326.804 106.167 327.630 106.167 L 328.456 106.167 330.674 102.125 C 331.893 99.902,333.065 97.765,333.279 97.375 C 333.492 96.985,333.865 96.310,334.107 95.875 C 334.349 95.440,336.776 91.033,339.501 86.083 C 342.225 81.133,345.440 75.298,346.644 73.115 C 348.786 69.233,349.040 68.606,348.633 68.200 C 348.341 67.907,348.100 67.953,347.720 68.375 M353.423 68.268 C 353.055 68.636,353.123 68.800,355.077 72.250 C 356.011 73.900,357.663 76.825,358.748 78.750 C 359.834 80.675,361.525 83.675,362.508 85.417 C 363.490 87.158,365.287 90.346,366.501 92.500 C 367.715 94.654,369.174 97.242,369.745 98.250 C 370.315 99.258,371.520 101.396,372.421 103.000 C 374.260 106.273,374.450 106.491,375.460 106.496 L 376.171 106.500 375.788 105.875 C 375.577 105.531,375.313 105.063,375.201 104.833 C 375.089 104.604,374.830 104.148,374.624 103.819 C 374.267 103.248,371.472 98.361,369.224 94.375 C 368.643 93.344,367.690 91.656,367.108 90.625 C 364.318 85.685,361.544 80.766,358.249 74.917 C 354.254 67.824,354.371 68.009,353.887 68.003 C 353.779 68.001,353.570 68.120,353.423 68.268 M350.595 68.429 C 350.274 68.750,350.187 107.582,350.506 108.178 C 350.737 108.609,351.254 108.586,351.574 108.130 C 351.917 107.639,351.976 68.709,351.633 68.367 C 351.357 68.090,350.907 68.117,350.595 68.429 M196.083 69.250 C 196.842 69.794,196.833 69.757,196.833 72.475 C 196.833 75.202,196.783 75.425,196.083 75.808 C 195.816 75.954,195.992 75.991,196.968 75.995 L 198.185 76.000 197.753 75.625 L 197.321 75.250 197.369 72.862 L 197.417 70.475 199.627 73.237 C 200.843 74.757,201.910 76.000,201.998 76.000 C 202.095 76.000,202.178 74.715,202.205 72.792 C 202.249 69.645,202.257 69.580,202.625 69.419 C 203.288 69.128,203.029 69.000,201.792 69.005 C 200.698 69.010,200.615 69.033,200.917 69.250 C 201.664 69.785,201.667 69.795,201.667 71.850 C 201.667 72.995,201.602 73.813,201.517 73.760 C 201.434 73.709,200.521 72.617,199.489 71.334 L 197.611 69.000 196.680 69.005 C 195.828 69.010,195.778 69.031,196.083 69.250 M230.740 69.255 C 230.918 69.390,231.126 69.500,231.202 69.500 C 231.278 69.500,231.320 70.867,231.295 72.537 L 231.250 75.574 230.833 75.784 C 230.471 75.968,230.622 75.993,232.000 75.978 C 232.871 75.969,233.433 75.924,233.250 75.879 C 232.603 75.720,232.500 75.493,232.500 74.230 L 232.500 73.000 233.010 73.000 C 236.019 73.000,237.120 69.666,234.299 69.101 C 233.150 68.872,230.391 68.991,230.740 69.255 M333.833 69.264 C 333.604 69.393,332.892 69.735,332.250 70.024 C 330.607 70.763,330.618 70.750,331.001 71.503 L 331.326 72.140 331.955 71.844 C 332.301 71.682,333.127 71.302,333.792 71.000 C 334.456 70.698,335.000 70.368,334.999 70.267 C 334.999 70.085,334.379 68.986,334.294 69.015 C 334.270 69.024,334.063 69.136,333.833 69.264 M234.076 69.437 C 235.533 69.996,234.792 72.667,233.179 72.667 L 232.500 72.667 232.500 71.000 L 232.500 69.333 233.153 69.333 C 233.512 69.333,233.927 69.380,234.076 69.437 M203.528 71.142 C 203.357 71.253,203.387 71.308,203.653 71.378 C 203.978 71.463,204.000 71.584,204.000 73.295 C 204.000 75.805,204.780 76.686,206.151 75.726 C 206.516 75.470,206.554 75.471,206.700 75.733 C 206.859 76.016,207.006 76.005,207.974 75.642 L 208.365 75.496 208.018 75.206 C 207.708 74.948,207.666 74.709,207.627 73.000 L 207.583 71.083 207.026 71.030 C 206.235 70.954,205.785 71.149,206.297 71.347 C 206.666 71.489,206.676 71.549,206.630 73.368 L 206.583 75.243 206.116 75.407 C 205.223 75.720,205.093 75.457,205.000 73.149 L 204.917 71.083 204.333 71.040 C 204.012 71.016,203.650 71.062,203.528 71.142 M236.583 71.167 C 236.527 71.258,236.562 71.333,236.662 71.333 C 236.839 71.333,237.489 72.628,238.402 74.798 C 239.053 76.344,238.487 78.028,237.494 77.497 C 236.916 77.187,236.480 77.684,236.912 78.161 C 237.842 79.189,238.528 78.206,240.269 73.348 C 240.578 72.485,240.944 71.654,241.083 71.501 C 241.392 71.159,241.255 71.000,240.649 71.000 C 240.158 71.000,239.855 71.257,240.207 71.375 C 240.503 71.473,239.670 74.500,239.348 74.500 C 239.241 74.500,238.301 72.518,238.084 71.837 C 237.995 71.556,238.050 71.456,238.332 71.382 C 238.606 71.310,238.640 71.253,238.472 71.146 C 238.161 70.949,236.708 70.965,236.583 71.167 M327.362 72.254 C 326.690 72.573,326.090 72.835,326.029 72.837 C 325.482 72.855,325.164 73.444,325.422 73.960 C 325.793 74.705,325.792 74.705,327.087 74.073 C 327.727 73.762,328.531 73.393,328.875 73.255 C 329.583 72.969,329.600 72.919,329.238 72.192 C 328.913 71.541,328.862 71.542,327.362 72.254 M322.833 74.336 C 322.696 74.418,321.958 74.767,321.194 75.110 C 319.829 75.723,319.807 75.742,319.906 76.240 C 320.089 77.151,320.299 77.204,321.500 76.638 C 322.096 76.358,322.902 75.989,323.292 75.820 C 324.083 75.476,324.077 75.488,323.800 74.720 C 323.599 74.165,323.310 74.050,322.833 74.336 M317.083 76.985 C 314.357 78.146,314.296 78.186,314.405 78.734 C 314.602 79.716,314.761 79.725,316.655 78.862 C 318.533 78.006,318.637 77.900,318.330 77.158 C 318.099 76.602,318.012 76.590,317.083 76.985 M311.250 79.650 C 310.700 79.909,309.925 80.260,309.528 80.431 C 308.764 80.761,308.643 81.381,309.230 81.968 C 309.493 82.231,313.000 80.664,313.000 80.283 C 313.000 79.210,312.541 79.044,311.250 79.650 M305.083 82.462 C 304.167 82.885,303.387 83.253,303.351 83.279 C 303.128 83.438,303.804 84.578,304.094 84.532 C 304.500 84.467,307.382 83.136,307.516 82.951 C 307.647 82.769,307.130 81.676,306.917 81.684 C 306.825 81.688,306.000 82.038,305.083 82.462 M301.167 84.285 C 300.210 84.637,297.833 85.866,297.833 86.009 C 297.833 86.222,298.312 87.167,298.420 87.167 C 298.566 87.167,301.916 85.638,302.051 85.510 C 302.185 85.382,301.687 84.155,301.511 84.180 C 301.459 84.187,301.304 84.234,301.167 84.285 M139.208 85.803 C 138.438 86.052,138.312 86.245,138.833 86.382 C 139.151 86.465,139.167 86.609,139.167 89.397 L 139.167 92.325 139.658 92.579 C 141.351 93.454,143.402 92.137,143.395 90.180 C 143.388 88.413,142.033 87.377,140.658 88.088 L 140.167 88.342 140.164 87.129 C 140.161 85.598,140.101 85.516,139.208 85.803 M73.759 86.204 C 73.617 86.407,73.500 86.758,73.500 86.983 L 73.500 87.391 73.902 87.013 C 74.593 86.364,75.157 86.807,75.419 88.205 C 75.505 88.665,75.316 89.310,74.430 91.569 C 73.140 94.857,73.207 94.500,73.880 94.500 C 74.426 94.500,74.427 94.499,75.166 92.502 C 76.014 90.210,76.020 90.210,76.651 92.471 C 77.173 94.343,77.360 94.667,77.925 94.667 C 78.451 94.667,78.833 94.241,78.833 93.655 C 78.833 93.131,78.600 92.999,78.435 93.428 C 78.286 93.818,77.619 93.652,77.388 93.167 C 77.279 92.938,76.800 91.400,76.325 89.750 C 75.850 88.100,75.356 86.544,75.226 86.292 C 74.924 85.702,74.143 85.656,73.759 86.204 M131.346 86.080 C 131.786 86.320,131.990 86.714,133.674 90.583 C 134.943 93.499,134.693 93.586,136.166 89.719 C 136.799 88.058,137.481 86.548,137.713 86.292 L 138.128 85.833 137.129 85.833 C 136.134 85.833,136.131 85.835,136.507 86.139 L 136.885 86.445 136.340 87.931 C 136.040 88.748,135.667 89.767,135.512 90.196 C 135.145 91.212,135.057 91.126,134.045 88.750 C 132.985 86.262,132.997 86.323,133.500 86.058 C 133.872 85.862,133.756 85.839,132.417 85.842 C 131.037 85.846,130.951 85.865,131.346 86.080 M168.848 86.081 C 169.264 86.307,169.900 87.560,171.640 91.583 C 172.334 93.187,172.382 93.143,173.664 89.750 C 174.307 88.047,174.977 86.552,175.213 86.292 L 175.628 85.833 174.629 85.833 C 173.634 85.833,173.631 85.835,174.007 86.139 L 174.384 86.444 173.946 87.680 C 172.562 91.594,172.738 91.515,171.551 88.750 C 170.485 86.267,170.496 86.323,171.000 86.058 C 171.372 85.862,171.256 85.839,169.917 85.842 C 168.532 85.846,168.450 85.865,168.848 86.081 M295.250 86.985 C 294.883 87.160,294.077 87.533,293.458 87.813 C 292.840 88.093,292.333 88.353,292.333 88.391 C 292.333 88.637,292.866 89.667,292.994 89.667 C 293.208 89.667,296.667 88.028,296.667 87.926 C 296.667 87.754,296.100 86.667,296.011 86.667 C 295.959 86.667,295.617 86.810,295.250 86.985 M15.000 87.909 C 15.000 87.951,15.188 88.172,15.417 88.402 C 16.118 89.103,16.032 94.362,15.315 94.589 C 14.598 94.817,15.088 95.000,16.417 95.000 C 17.250 95.000,17.833 94.931,17.833 94.833 C 17.833 94.742,17.698 94.667,17.533 94.667 C 16.989 94.667,16.833 94.307,16.833 93.050 L 16.833 91.833 17.522 91.833 C 19.209 91.833,20.333 91.033,20.333 89.833 C 20.333 89.013,19.749 88.294,18.866 88.029 C 18.252 87.845,15.000 87.744,15.000 87.909 M176.042 88.264 C 175.447 88.733,175.369 89.017,175.750 89.333 C 176.084 89.610,176.462 89.303,176.532 88.696 C 176.613 87.994,177.669 88.037,177.860 88.750 C 178.065 89.511,177.911 89.740,176.914 90.153 C 175.775 90.625,175.269 91.216,175.406 91.914 C 175.585 92.827,176.419 93.095,177.362 92.542 C 177.834 92.264,177.868 92.264,178.072 92.542 C 178.328 92.890,179.049 92.926,179.316 92.604 C 179.466 92.424,179.437 92.356,179.186 92.290 C 178.899 92.215,178.859 92.017,178.807 90.422 C 178.727 87.922,177.595 87.039,176.042 88.264 M18.654 88.598 C 19.873 89.624,19.081 91.500,17.428 91.500 L 16.833 91.500 16.833 89.944 C 16.833 89.089,16.883 88.339,16.944 88.278 C 17.213 88.009,18.166 88.187,18.654 88.598 M141.557 88.518 C 143.012 89.181,142.641 92.505,141.113 92.497 C 140.196 92.493,140.150 92.390,140.202 90.491 C 140.248 88.833,140.268 88.750,140.667 88.549 C 141.172 88.294,141.071 88.297,141.557 88.518 M372.279 88.443 C 372.218 88.504,372.328 88.665,372.523 88.801 C 372.717 88.938,373.100 89.544,373.373 90.150 C 373.645 90.755,374.004 91.550,374.169 91.917 C 374.435 92.507,374.939 93.650,375.548 95.042 C 375.799 95.616,375.982 95.561,376.263 94.826 C 378.373 89.293,378.560 88.864,378.916 88.727 C 379.386 88.547,378.979 88.333,378.167 88.333 C 377.310 88.333,376.925 88.565,377.522 88.721 C 377.913 88.823,377.876 89.489,377.423 90.558 C 377.300 90.847,376.997 91.631,376.749 92.300 C 376.176 93.844,376.150 93.828,375.057 91.270 C 374.161 89.174,374.068 88.667,374.578 88.667 C 374.718 88.667,374.833 88.592,374.833 88.500 C 374.833 88.316,372.459 88.264,372.279 88.443 M288.917 89.889 C 286.644 90.949,286.778 90.828,287.081 91.551 C 287.350 92.195,287.483 92.265,287.961 92.015 C 288.120 91.932,288.906 91.560,289.708 91.189 C 290.510 90.819,291.167 90.477,291.167 90.430 C 291.167 90.249,290.600 89.167,290.511 89.178 C 290.459 89.184,289.742 89.504,288.917 89.889 M21.170 90.482 C 21.489 90.747,21.927 91.293,22.142 91.694 L 22.535 92.424 21.839 93.472 C 21.456 94.048,21.036 94.561,20.906 94.611 C 20.502 94.765,20.823 95.000,21.438 95.000 C 21.944 95.000,22.008 94.956,21.918 94.671 C 21.852 94.464,21.982 94.056,22.270 93.564 L 22.726 92.786 23.112 93.234 C 23.577 93.775,23.803 94.538,23.525 94.630 C 23.067 94.783,23.590 95.000,24.417 95.000 C 25.291 95.000,25.738 94.794,25.261 94.610 C 25.130 94.560,24.638 93.949,24.168 93.252 L 23.313 91.984 23.781 91.242 C 24.039 90.834,24.292 90.500,24.343 90.500 C 24.394 90.500,24.582 90.390,24.760 90.255 C 25.057 90.030,25.012 90.010,24.188 90.005 C 23.402 90.001,23.318 90.031,23.505 90.256 C 23.758 90.560,23.432 91.333,23.052 91.333 C 22.687 91.333,22.409 90.561,22.663 90.255 C 22.849 90.030,22.738 90.000,21.732 90.000 L 20.591 90.000 21.170 90.482 M177.997 91.005 C 178.001 91.736,177.600 92.333,177.107 92.333 C 176.295 92.333,176.044 91.320,176.708 90.718 C 177.660 89.857,177.993 89.931,177.997 91.005 M379.386 90.825 C 377.172 92.175,378.524 95.908,381.055 95.433 C 382.506 95.161,383.350 93.009,382.550 91.623 C 381.947 90.578,380.421 90.194,379.386 90.825 M381.292 91.208 C 381.737 91.684,382.071 92.997,381.945 93.773 C 381.502 96.505,378.854 94.950,379.234 92.181 C 379.413 90.871,380.498 90.358,381.292 91.208 M283.168 92.536 C 281.061 93.527,281.214 93.380,281.551 94.085 C 281.897 94.811,281.948 94.809,283.632 93.999 C 284.392 93.633,285.077 93.333,285.153 93.333 C 285.537 93.333,285.697 92.840,285.477 92.341 C 285.159 91.623,285.101 91.628,283.168 92.536 M84.375 96.277 C 84.260 96.323,84.167 96.573,84.167 96.832 C 84.167 97.373,84.426 97.494,91.833 100.419 C 94.079 101.306,99.742 103.556,104.418 105.419 C 114.004 109.239,113.682 109.128,114.059 108.750 C 114.745 108.065,114.205 107.735,109.083 105.707 C 106.517 104.690,100.070 102.128,94.758 100.013 C 89.446 97.897,84.984 96.173,84.842 96.180 C 84.700 96.187,84.490 96.231,84.375 96.277 M60.827 103.421 C 51.507 110.399,50.907 110.903,51.320 111.401 C 51.795 111.973,52.329 111.622,61.590 104.671 C 70.804 97.754,71.270 97.363,70.973 96.792 C 70.633 96.137,70.017 96.540,60.827 103.421 M269.381 98.709 L 269.844 99.083 269.797 101.995 C 269.751 104.824,269.739 104.913,269.376 105.093 C 269.170 105.196,269.052 105.329,269.112 105.390 C 269.289 105.567,274.469 105.519,274.580 105.339 C 274.796 104.990,275.126 103.667,274.997 103.667 C 274.922 103.667,274.699 103.928,274.502 104.247 C 274.071 104.945,273.314 105.214,272.000 105.137 L 271.083 105.083 271.035 103.542 L 270.987 102.000 272.051 102.000 C 273.115 102.000,273.667 102.275,273.667 102.805 C 273.667 102.912,273.742 103.000,273.833 103.000 C 273.927 103.000,274.000 102.528,274.000 101.917 C 274.000 101.306,273.927 100.833,273.833 100.833 C 273.742 100.833,273.667 100.942,273.667 101.074 C 273.667 101.521,272.966 101.833,271.963 101.833 L 271.000 101.833 271.000 100.250 L 271.000 98.667 272.333 98.667 C 273.684 98.667,274.333 98.948,274.333 99.533 C 274.333 99.668,274.388 99.678,274.502 99.565 C 274.595 99.472,274.623 99.157,274.565 98.865 L 274.458 98.333 271.688 98.334 L 268.917 98.335 269.381 98.709 M77.700 99.033 C 77.154 99.580,76.822 99.155,84.509 107.761 C 85.568 108.946,86.648 110.159,86.908 110.455 C 87.467 111.089,87.923 111.271,88.258 110.993 C 88.808 110.537,88.504 110.059,85.556 106.736 C 78.269 98.521,78.240 98.493,77.700 99.033 M276.398 100.921 C 275.927 101.391,275.927 101.882,276.399 101.973 C 276.759 102.042,276.994 101.744,276.997 101.212 C 277.001 100.763,277.705 100.519,278.085 100.835 C 278.696 101.342,278.398 102.243,277.488 102.640 C 275.126 103.671,275.302 106.177,277.669 105.230 C 278.304 104.976,278.365 104.977,278.676 105.258 C 278.985 105.538,279.041 105.540,279.545 105.287 C 280.061 105.028,280.068 105.012,279.708 104.906 C 279.357 104.801,279.333 104.704,279.333 103.339 C 279.333 100.991,279.031 100.500,277.587 100.500 C 276.987 100.500,276.726 100.593,276.398 100.921 M278.333 103.649 C 278.333 104.695,278.224 104.833,277.398 104.833 C 276.406 104.833,276.682 103.262,277.750 102.824 C 278.307 102.596,278.333 102.633,278.333 103.649 M320.407 110.422 C 320.585 110.557,320.793 110.667,320.869 110.667 C 320.945 110.667,320.987 112.033,320.962 113.704 L 320.917 116.740 320.500 116.951 C 320.136 117.135,320.284 117.161,321.667 117.158 C 323.177 117.154,323.225 117.143,322.708 116.918 L 322.167 116.683 322.167 115.425 L 322.167 114.167 322.804 114.167 C 325.635 114.167,326.801 111.402,324.394 110.396 C 323.573 110.053,319.950 110.076,320.407 110.422 M294.612 110.443 C 294.552 110.504,294.670 110.637,294.876 110.740 C 295.240 110.921,295.251 111.008,295.303 113.963 L 295.356 117.000 294.886 117.204 C 294.338 117.443,295.237 117.567,296.792 117.467 L 297.583 117.417 297.083 117.165 C 296.600 116.922,296.582 116.870,296.535 115.623 L 296.486 114.333 297.332 114.333 C 300.351 114.333,301.082 111.230,298.231 110.513 C 297.454 110.317,294.789 110.266,294.612 110.443 M377.784 110.589 C 373.513 112.156,375.091 117.834,379.691 117.448 C 381.572 117.291,381.741 117.148,381.798 115.665 C 381.838 114.607,381.902 114.373,382.215 114.129 C 382.572 113.849,382.543 113.841,381.208 113.837 C 379.869 113.833,379.410 114.024,380.250 114.235 C 380.864 114.389,380.901 116.898,380.292 117.062 C 378.133 117.640,376.667 116.406,376.667 114.010 C 376.667 110.749,379.659 109.372,381.007 112.014 C 381.504 112.988,381.730 112.856,381.621 111.653 C 381.518 110.519,381.443 110.369,381.112 110.642 C 380.940 110.786,380.683 110.772,380.067 110.585 C 379.077 110.284,378.612 110.285,377.784 110.589 M324.052 110.967 C 325.082 112.042,324.328 113.833,322.846 113.833 L 322.167 113.833 322.167 112.167 L 322.167 110.500 322.885 110.500 C 323.455 110.500,323.697 110.597,324.052 110.967 M297.976 110.904 C 299.430 111.656,298.884 114.007,297.242 114.061 L 296.583 114.083 296.535 112.597 C 296.468 110.556,296.723 110.256,297.976 110.904 M345.208 111.252 L 345.667 111.511 345.667 114.500 L 345.667 117.489 345.208 117.738 C 344.774 117.973,344.834 117.987,346.333 117.993 L 347.917 117.999 347.368 117.664 C 346.819 117.330,346.819 117.328,346.868 116.123 L 346.917 114.917 348.024 114.807 C 349.604 114.651,350.333 114.054,350.333 112.917 C 350.333 111.494,349.614 111.099,346.917 111.041 C 344.886 110.996,344.779 111.010,345.208 111.252 M348.131 111.346 C 349.602 111.859,349.467 114.209,347.944 114.591 C 347.007 114.826,346.921 114.706,346.868 113.095 C 346.801 111.045,346.895 110.915,348.131 111.346 M326.638 112.496 C 325.876 112.726,325.736 112.873,326.138 113.022 C 326.682 113.223,326.709 119.143,326.167 119.285 C 325.439 119.475,325.899 119.667,327.083 119.667 C 328.240 119.667,328.820 119.426,327.958 119.303 C 327.619 119.255,327.579 119.146,327.535 118.149 L 327.486 117.048 328.324 117.128 C 329.368 117.228,329.903 116.915,330.344 115.945 C 331.359 113.708,329.832 111.520,327.955 112.524 C 327.688 112.667,327.583 112.667,327.536 112.524 C 327.464 112.309,327.279 112.303,326.638 112.496 M300.669 113.125 C 300.672 113.737,300.676 113.742,300.882 113.333 C 301.068 112.964,301.213 112.911,302.154 112.866 L 303.216 112.816 302.967 113.200 C 302.678 113.643,301.242 115.957,300.685 116.875 L 300.306 117.500 302.320 117.500 L 304.333 117.500 304.333 117.083 C 304.333 116.625,304.091 116.522,303.940 116.917 C 303.847 117.159,301.667 117.310,301.667 117.075 C 301.667 117.024,302.229 116.060,302.917 114.933 C 304.498 112.340,304.531 112.500,302.417 112.500 L 300.667 112.500 300.669 113.125 M383.138 112.886 C 383.463 113.232,383.500 113.453,383.500 115.046 C 383.500 117.301,384.241 118.152,385.426 117.255 C 385.842 116.941,386.167 116.934,386.167 117.240 C 386.167 117.446,386.271 117.444,386.917 117.224 C 387.645 116.976,387.923 116.667,387.417 116.667 C 387.208 116.667,387.167 116.324,387.167 114.583 L 387.167 112.500 386.250 112.500 C 385.247 112.500,385.111 112.590,385.750 112.833 C 386.331 113.054,386.397 116.103,385.833 116.667 C 384.859 117.641,384.333 116.841,384.333 114.380 L 384.333 112.500 383.554 112.500 L 382.775 112.500 383.138 112.886 M329.239 113.155 C 330.528 114.579,329.170 117.959,327.805 116.724 C 327.387 116.346,327.354 113.503,327.762 113.095 C 328.122 112.736,328.888 112.766,329.239 113.155 M350.953 113.102 C 350.889 113.167,350.985 113.325,351.168 113.453 C 351.465 113.661,351.500 113.876,351.500 115.509 C 351.500 117.828,352.220 118.668,353.426 117.755 C 353.847 117.438,354.167 117.435,354.167 117.750 C 354.167 118.060,354.177 118.060,354.997 117.732 C 355.664 117.465,355.888 117.167,355.422 117.167 C 355.222 117.167,355.168 116.788,355.130 115.125 L 355.083 113.083 354.352 113.031 C 353.950 113.002,353.542 113.058,353.444 113.156 C 353.319 113.281,353.369 113.333,353.616 113.333 C 354.320 113.333,354.478 116.763,353.796 117.241 C 352.778 117.954,352.438 117.437,352.333 115.017 L 352.250 113.083 351.661 113.034 C 351.337 113.006,351.018 113.037,350.953 113.102 M77.667 113.649 C 77.667 113.731,77.784 113.843,77.927 113.898 C 78.187 113.997,79.217 116.076,80.415 118.917 C 81.402 121.257,81.199 121.386,82.683 117.475 C 83.440 115.478,83.982 114.292,84.244 114.059 C 84.762 113.597,84.642 113.500,83.556 113.500 C 82.574 113.500,82.502 113.563,83.014 113.978 L 83.361 114.259 82.947 115.421 C 81.533 119.389,81.698 119.320,80.482 116.454 C 79.524 114.196,79.461 113.833,80.028 113.833 C 80.207 113.833,80.307 113.758,80.250 113.667 C 80.122 113.460,77.667 113.443,77.667 113.649 M47.386 113.941 C 47.445 114.001,47.664 114.134,47.872 114.238 C 48.778 114.689,48.447 120.660,47.516 120.669 C 47.283 120.671,47.281 120.692,47.500 120.833 C 47.777 121.013,49.384 121.061,49.550 120.895 C 49.608 120.837,49.470 120.644,49.244 120.466 C 48.842 120.149,48.833 120.093,48.833 117.784 C 48.833 115.789,48.867 115.476,49.051 115.755 C 49.248 116.054,50.326 118.362,51.090 120.125 C 51.468 120.995,51.614 121.009,51.933 120.208 C 52.070 119.865,52.251 119.433,52.335 119.250 C 52.420 119.067,52.854 118.111,53.301 117.127 C 54.292 114.945,54.333 114.974,54.333 117.849 C 54.333 120.088,54.324 120.150,53.922 120.466 C 53.364 120.905,53.529 121.000,54.851 121.000 C 56.097 121.000,56.378 120.836,55.730 120.489 L 55.304 120.261 55.360 117.047 L 55.417 113.833 54.810 113.833 L 54.203 113.833 53.494 115.458 C 52.334 118.114,52.006 118.810,51.874 118.890 C 51.806 118.932,51.227 117.811,50.587 116.400 L 49.424 113.833 48.351 113.833 C 47.761 113.833,47.326 113.882,47.386 113.941 M109.591 114.131 C 110.020 114.490,110.474 115.321,111.338 117.333 C 112.541 120.133,112.888 120.833,113.071 120.833 C 113.169 120.833,113.693 119.652,114.235 118.208 C 115.376 115.166,115.755 114.353,116.091 114.224 C 116.640 114.013,116.269 113.834,115.292 113.837 L 114.250 113.841 114.667 114.162 L 115.083 114.483 114.698 115.617 C 113.490 119.175,113.357 119.385,112.952 118.375 C 112.724 117.807,112.220 116.659,111.558 115.197 C 111.279 114.583,111.355 114.167,111.745 114.167 C 111.885 114.167,112.000 114.092,112.000 114.000 C 112.000 113.902,111.434 113.836,110.625 113.839 C 109.304 113.844,109.263 113.856,109.591 114.131 M85.833 116.002 C 85.165 116.284,85.124 116.331,85.458 116.429 C 85.817 116.534,85.833 116.616,85.833 118.332 C 85.833 120.004,85.808 120.144,85.458 120.388 C 85.103 120.635,85.149 120.649,86.333 120.649 C 87.517 120.649,87.564 120.635,87.208 120.388 C 86.233 119.707,86.800 116.167,87.885 116.167 C 88.704 116.167,89.130 120.077,88.333 120.285 C 87.619 120.472,88.056 120.667,89.191 120.667 L 90.382 120.667 89.941 120.258 C 88.604 119.019,89.813 115.339,91.208 116.399 C 91.678 116.755,91.642 120.161,91.167 120.285 C 90.477 120.465,90.872 120.667,91.917 120.667 C 93.047 120.667,93.227 120.556,92.667 120.205 C 92.367 120.018,92.333 119.817,92.333 118.194 C 92.333 115.742,91.612 115.055,90.051 116.020 L 89.480 116.373 89.104 116.020 C 88.667 115.608,88.033 115.564,87.574 115.911 C 87.153 116.229,86.833 116.231,86.833 115.917 C 86.833 115.605,86.759 115.611,85.833 116.002 M57.430 116.353 C 56.913 116.759,56.891 117.417,57.395 117.417 C 57.604 117.417,57.768 117.225,57.895 116.833 C 58.241 115.764,59.333 116.009,59.333 117.156 C 59.333 117.745,59.294 117.788,58.416 118.152 C 56.850 118.801,56.364 119.973,57.355 120.710 C 57.794 121.036,59.000 120.858,59.000 120.467 C 59.000 120.204,59.424 120.340,59.628 120.667 C 59.891 121.087,60.190 121.089,60.690 120.672 L 61.083 120.344 60.708 120.339 C 60.350 120.334,60.333 120.271,60.332 118.958 C 60.331 117.343,60.108 116.403,59.670 116.169 C 59.112 115.870,57.919 115.968,57.430 116.353 M117.353 116.625 C 117.364 116.985,117.407 117.109,117.454 116.917 C 117.603 116.310,117.855 116.167,118.770 116.167 C 119.897 116.167,119.915 116.066,118.348 118.610 C 116.806 121.114,116.776 121.032,119.204 120.964 L 120.917 120.917 120.969 120.458 C 121.031 119.920,120.833 119.862,120.539 120.333 C 120.313 120.694,118.333 120.845,118.333 120.502 C 118.333 120.411,118.933 119.361,119.666 118.168 L 120.998 116.000 119.166 116.000 L 117.333 116.000 117.353 116.625 M59.333 119.050 C 59.333 120.046,59.140 120.333,58.473 120.333 C 57.530 120.333,57.463 119.341,58.355 118.591 C 59.138 117.932,59.333 118.023,59.333 119.050 M55.860 125.052 C 55.760 125.172,55.349 126.128,54.946 127.177 C 50.861 137.820,50.993 137.427,51.367 137.800 C 51.988 138.421,52.365 137.975,53.312 135.500 C 53.680 134.537,54.660 131.987,55.490 129.833 C 56.320 127.679,56.999 125.763,57.000 125.575 C 57.000 124.923,56.251 124.580,55.860 125.052 M57.971 140.330 C 57.209 140.560,57.070 140.707,57.472 140.855 C 57.824 140.986,57.833 141.065,57.833 143.891 C 57.833 147.230,57.812 147.179,59.288 147.302 C 60.399 147.394,61.176 147.052,61.649 146.263 C 62.885 144.200,61.253 141.561,59.413 142.647 L 58.833 142.989 58.833 141.578 C 58.833 140.077,58.829 140.071,57.971 140.330 M48.000 140.421 C 48.000 140.469,48.188 140.580,48.417 140.667 L 48.833 140.825 48.833 143.808 L 48.833 146.792 48.292 147.059 L 47.750 147.326 49.083 147.324 C 50.141 147.323,50.348 147.286,50.083 147.141 C 49.397 146.765,49.333 146.515,49.333 144.185 C 49.333 141.504,49.321 141.500,50.740 144.656 C 52.037 147.543,52.076 147.591,52.431 146.738 C 53.071 145.198,54.528 142.072,54.674 141.926 C 54.775 141.825,54.833 142.676,54.833 144.261 L 54.833 146.756 54.375 147.040 C 53.923 147.321,53.937 147.324,55.417 147.316 C 56.242 147.311,56.804 147.266,56.667 147.215 C 55.876 146.925,55.833 146.754,55.833 143.923 C 55.833 141.127,55.881 140.910,56.583 140.526 C 56.853 140.378,56.708 140.343,55.821 140.338 L 54.726 140.333 54.340 141.208 C 54.127 141.690,53.786 142.458,53.582 142.917 C 53.378 143.375,53.042 144.143,52.836 144.623 C 52.362 145.726,52.448 145.813,51.095 142.846 L 49.949 140.333 48.974 140.333 C 48.438 140.333,48.000 140.373,48.000 140.421 M60.734 143.554 C 61.853 145.060,60.625 147.780,59.175 147.004 C 58.713 146.757,58.655 143.702,59.104 143.253 C 59.512 142.845,60.317 142.994,60.734 143.554 " stroke="none" fill="#121212" fill-rule="evenodd"></path></g></svg>